<svg id="Layer_1" data-name="Layer 1" xmlns="http://www.w3.org/2000/svg" viewBox="0 0 40 50"><defs><style>.cls-1{fill:#2f201c;}.cls-2{fill:#e9a448;}.cls-3{fill:#fff;}.cls-4{fill:#dbdbdb;}.cls-5{fill:#df8432;}.cls-6{fill:#df8332;}.cls-7{fill:#b7572a;}.cls-8{fill:#f3ca71;}.cls-9{fill:#ce722e;}.cls-10{fill:#de8332;}.cls-11{fill:#f2de5a;}.cls-12{fill:#a12b2a;}.cls-13{fill:#fbfbf9;}.cls-14{fill:#fffbfa;}.cls-15{fill:#bf3433;}.cls-16{fill:#c33533;}.cls-17{fill:#d8d8d7;}.cls-18{fill:#d8d8d8;}.cls-19{fill:#f8f7f5;}.cls-20{fill:#c2c2c1;}.cls-21{fill:#fffffb;}.cls-22{fill:#cacbcc;}.cls-23{fill:#cbcdcd;}.cls-24{fill:#f8f7f7;}.cls-25{fill:#f6f6f6;}.cls-26{fill:#573e39;}.cls-27{fill:#e08880;}.cls-28{fill:#e9aea6;}</style></defs><g id="Design"><path class="cls-1" d="M8.8383,34.6225a5.3827,5.3827,0,0,1,1.21-3.4387.7694.7694,0,0,0-.2547-1.1462A8.7537,8.7537,0,0,1,5.0812,23.797,13.5325,13.5325,0,0,1,5.527,17.62a3.1162,3.1162,0,0,0,.0636-1.3373,16.2911,16.2911,0,0,1,.2548-9.2335C6.61,4.8205,7.8194,4.3111,9.9845,5.33A14.7635,14.7635,0,0,1,13.36,7.5588a.6847.6847,0,0,0,.8915.1273A14.8551,14.8551,0,0,1,26.0317,7.75a.6771.6771,0,0,0,.7642-.1274A15.5962,15.5962,0,0,1,29.98,5.4573a6.7767,6.7767,0,0,1,1.5919-.5731,2.0088,2.0088,0,0,1,2.2288,1.0189,10.1812,10.1812,0,0,1,1.1463,3.566,17.3922,17.3922,0,0,1-.3821,7.26,1.1005,1.1005,0,0,0,.0637.6368,13.5719,13.5719,0,0,1,.7,5.54,8.7646,8.7646,0,0,1-4.84,7.1321.7456.7456,0,0,0-.2547,1.1462,5.8168,5.8168,0,0,1,1.1462,4.6486c0,.1911-.1274.3184.1274.51a4.0362,4.0362,0,0,1,1.783,3.9481,8.0943,8.0943,0,0,1-.8278,2.9292,3.07,3.07,0,0,1-2.8656,1.8467H28.5789a4.5206,4.5206,0,0,0-2.2288.4458,4.2212,4.2212,0,0,1-3.1839.191c-.0637,0-.1274-.0636-.1911-.0636-.7005-.7642-1.592-.5731-2.4835-.5731H19.1544a3.2408,3.2408,0,0,0-1.6557.4457,3.8338,3.8338,0,0,1-3.9481-.191,1.4617,1.4617,0,0,0-.8915-.2547H10.685a3.1363,3.1363,0,0,1-2.8656-1.8468,7.6208,7.6208,0,0,1-.7641-2.6745,1.0443,1.0443,0,0,0-.4458-.7641,7.0512,7.0512,0,0,1-2.1651-9.743c.0637-.0637.1274-.1274.1274-.191a.5142.5142,0,0,1,.5731-.2548c.2547.0637.3184.2548.3821.5095A5.8211,5.8211,0,0,0,7.31,33.6036,4.5794,4.5794,0,0,0,8.8383,34.6225Z"/><path class="cls-2" d="M5.909,23.2239a11.7137,11.7137,0,0,1,.4458-5.158A15.0357,15.0357,0,0,1,11.8312,10.17c.3821-.3184.4458-.5731.1274-.9552a15.106,15.106,0,0,0-1.592-1.8467c.2547-.2547.4457-.0637.6368.0637A12.1674,12.1674,0,0,1,13.0411,8.96a1.1954,1.1954,0,0,0,1.21.1274,14.3079,14.3079,0,0,1,8.7878-.8915,15.7543,15.7543,0,0,1,2.9293.9551.7844.7844,0,0,0,.8915-.1273,15.4574,15.4574,0,0,1,2.0377-1.5283c.2547-.1911.5094-.3821.8278-.1911a19.663,19.663,0,0,0-1.5283,1.7194c-.4457.6368-.4457.7641.1911,1.21a15.1049,15.1049,0,0,1,5.9222,11.08,5.9306,5.9306,0,0,1-.0637,1.8467A2.587,2.587,0,0,1,31.89,24.4338,5.3584,5.3584,0,0,1,28.07,23.16,38.2956,38.2956,0,0,1,25.14,20.4857a14.9,14.9,0,0,0-1.91-1.592,5.3506,5.3506,0,0,0-6.3679.0637A22.423,22.423,0,0,0,14.251,21.25a25.3185,25.3185,0,0,1-1.91,1.7831,5.79,5.79,0,0,1-3.9482,1.4009A3.0435,3.0435,0,0,1,5.909,23.2239Z"/><path class="cls-3" d="M5.909,23.2239a5.1143,5.1143,0,0,0,1.8467.9552,5.2581,5.2581,0,0,0,4.5213-1.3373c1.1462-.9552,2.2288-2.0377,3.3113-3.0566a7.373,7.373,0,0,1,2.9929-1.8467,5.643,5.643,0,0,1,5.1581,1.21c1.3372,1.0826,2.5472,2.3562,3.8844,3.5661A5.274,5.274,0,0,0,32.4,24.2428a3.856,3.856,0,0,0,1.783-1.0189,5.7417,5.7417,0,0,1-.191,1.0189,16.1285,16.1285,0,0,1-1.1463,1.7193,11.883,11.883,0,0,1-4.1391,2.6746,21.87,21.87,0,0,1-5.6675,1.1462,29.049,29.049,0,0,1-8.7878-.4458,12.6579,12.6579,0,0,1-6.4953-3.12,7.337,7.337,0,0,1-1.592-2.1014A3.6535,3.6535,0,0,1,5.909,23.2239Z"/><path class="cls-4" d="M6.1637,24.1791a10.1284,10.1284,0,0,1,1.2736,1.5283,11.1143,11.1143,0,0,0,2.993,2.2288,19.2134,19.2134,0,0,0,7.0684,1.7193,28.0427,28.0427,0,0,0,9.2335-.6368,12.31,12.31,0,0,0,5.9859-3.2476,8.4747,8.4747,0,0,0,.8915-1.21c.0637-.1274.1273-.3184.3821-.3184a7.6109,7.6109,0,0,1-3.5661,4.7122,16.5533,16.5533,0,0,1-6.559,2.1015,27.49,27.49,0,0,1-10.4434-.5731,11.2782,11.2782,0,0,1-5.7311-3.2477A6.62,6.62,0,0,1,6.1637,24.1791Z"/><path class="cls-2" d="M22.7841,43.7287a5.5283,5.5283,0,0,1-.0637-1.4646V39.08c0-.1274.0637-.1274.1274-.0637.1273.1274.0636.3184.1273.5094a39.8142,39.8142,0,0,0,3.63-3.6934,4.965,4.965,0,0,0,1.2735-2.7382c0-.0637.0637-.191.0637-.2547.2547-.1274.4458-.191.7005-.3184.3184,0,.3184.3184.3821.5094a6.0237,6.0237,0,0,1,.0636,2.6109,15.7879,15.7879,0,0,1-1.4009,4.4575,13.3471,13.3471,0,0,1-1.401,2.6746,1.9834,1.9834,0,0,1-.4457.5731.3827.3827,0,0,1-.2547.0637,4.8074,4.8074,0,0,0-2.4835.3184A.2891.2891,0,0,1,22.7841,43.7287Z"/><path class="cls-2" d="M17.3713,40.099c0,1.21.0637,2.42,0,3.63a.4057.4057,0,0,1-.382,0,4.47,4.47,0,0,0-2.42-.2547A.4988.4988,0,0,1,14.06,43.41a3.7623,3.7623,0,0,0-.3821-.8915,23.6948,23.6948,0,0,1-2.4835-6.1769,7.3816,7.3816,0,0,1-.1273-3.12c.0636-.2547.1273-.5731.382-.7005.2548.1274.4458.191.7.3184a.5781.5781,0,0,1,.1911.4458A4.4165,4.4165,0,0,0,13.36,35.5777a38.21,38.21,0,0,0,3.5024,3.6934A1.5412,1.5412,0,0,1,17.3713,40.099Z"/><path class="cls-4" d="M18.39,42.073V39.1438c0-.4458-.191-.7-.6368-.6368a1.0343,1.0343,0,0,1-.3184-.5732,11.4542,11.4542,0,0,0-1.783-3.375,1.5061,1.5061,0,0,0-.8278-.7c-.1274-.0637-.2548-.0637-.2548-.3184,1.0189.1273,2.0378.382,3.0567.4457.382,0,.2547.1911.1273.4458a2.3441,2.3441,0,0,0,.5731,2.6745,2.5357,2.5357,0,0,0,2.7382.5095,2.5077,2.5077,0,0,0,1.3373-3.12c-.191-.5095,0-.5095.3821-.5095.7641-.0637,1.5283-.191,2.3561-.3184.0637.1911-.0637.2547-.1273.3821a10.4853,10.4853,0,0,0-2.2288,4.1392c-.0637.1273-.0637.2547-.1911.3184-.5731-.0637-.7.0636-.7.6368,0,.9552,0,1.91-.0637,2.8655A2.693,2.693,0,0,1,18.39,42.073Z"/><path class="cls-3" d="M14.5694,33.6036c1.21.4458,1.6557,1.5284,2.2288,2.5472A6.2323,6.2323,0,0,1,17.69,38.507c-.382.191-.3184.5731-.3184.8915v.7a56.9275,56.9275,0,0,1-4.2028-4.5213A4.2783,4.2783,0,0,1,12.15,32.84C12.9774,33.0942,13.7416,33.3489,14.5694,33.6036Z"/><path class="cls-3" d="M22.4657,38.5706a7.6274,7.6274,0,0,1,1.2736-3.0566,9.32,9.32,0,0,1,1.3372-1.783c.9552-.2547,1.9741-.5094,2.8656-.8278a2.6154,2.6154,0,0,1-.5094,2.0377,18.8187,18.8187,0,0,1-3.12,3.63,16.6014,16.6014,0,0,0-1.4646,1.5284c-.1911-.3184,0-.6368-.1274-.9552A.6209.6209,0,0,0,22.4657,38.5706Z"/><path class="cls-5" d="M25.777,43.2829a22.3225,22.3225,0,0,0,2.993-7.0684,6.1045,6.1045,0,0,0-.1274-3.6934c.0637-.0637.191-.1274.2547-.191.7642-.3821.7642-.3821,1.0826.382a6.4264,6.4264,0,0,1,.1273,3.9482,22.34,22.34,0,0,1-2.8656,6.5589c-.1273.1911-.2547.3184-.382.51C26.4138,43.7287,26.0317,43.7287,25.777,43.2829Z"/><path class="cls-5" d="M11.4491,32.5211c-.7,1.91-.191,3.7571.3821,5.54a19.3977,19.3977,0,0,0,2.2925,4.776.3368.3368,0,0,1-.0637.5094.655.655,0,0,1-.7642.4458,12.9411,12.9411,0,0,1-2.1651-3.8845A13.7016,13.7016,0,0,1,9.7935,35.132a5.0373,5.0373,0,0,1,.4457-2.5472c.3184-.6368.3184-.6368.8915-.2547C11.2581,32.3937,11.3218,32.4574,11.4491,32.5211Z"/><path class="cls-6" d="M27.8784,44.1108a26.4294,26.4294,0,0,0,2.993-6.559c.1273-.3821.2547-.2547.4457-.0637a3.6282,3.6282,0,0,1,.8915,2.8656,6.5985,6.5985,0,0,1-.7,2.42,2.2772,2.2772,0,0,1-1.7831,1.3373A17.8378,17.8378,0,0,1,27.8784,44.1108Z"/><path class="cls-6" d="M11.2581,44.1108c-1.7193,0-2.3561-.4458-2.9292-2.1015a4.7443,4.7443,0,0,1-.1911-3.375,2.6654,2.6654,0,0,1,.7-1.1462c.191-.191.3184-.3184.3821.0637a24.9864,24.9864,0,0,0,2.8019,6.2406c.1273.2547.1273.3184-.1911.3184Z"/><path class="cls-7" d="M32.9091,13.7993a18.3885,18.3885,0,0,0-3.2476-3.757c-.7005-.5732-.7005-.6368-.0637-1.3373a10.5549,10.5549,0,0,1,2.42-2.0378.8754.8754,0,0,1,.3184.51,11.4809,11.4809,0,0,1,.7,3.63,9.5963,9.5963,0,0,1,.0637,1.91C33.2275,13.1625,33.2275,13.5446,32.9091,13.7993Z"/><path class="cls-7" d="M8.0741,6.7309A9.4927,9.4927,0,0,1,10.876,9.2144c.1274.1911.1911.3184,0,.51a17.024,17.024,0,0,0-3.63,4.0754.6466.6466,0,0,1-.3184-.6368,18.4953,18.4953,0,0,1,.6368-5.6037A.9941.9941,0,0,1,8.0741,6.7309Z"/><path class="cls-8" d="M29.7251,7.24A6.0432,6.0432,0,0,0,27.56,8.6413a1.7543,1.7543,0,0,1-2.2924.4458,12.6447,12.6447,0,0,0-6.6864-.9552A12.1556,12.1556,0,0,0,13.869,9.4691c-.1911.1274-.3184.0637-.5095-.0636-.8278-.6368-1.592-1.3373-2.4835-1.91a.8466.8466,0,0,0-.5094-.1911c-.5731-.4457-1.0826-.8915-1.7194-1.3372a3.4531,3.4531,0,0,1,1.5284.5731,18.3984,18.3984,0,0,1,2.8655,2.1014.7813.7813,0,0,0,1.0189.191,13.9237,13.9237,0,0,1,11.9081,0,.7717.7717,0,0,0,.9551-.1273A14.0454,14.0454,0,0,1,30.744,6.0941c.1911-.0637.3184-.1273.5094-.191.0637,0,.0637,0,.1911.0637C30.8077,6.4125,30.2983,6.8583,29.7251,7.24Z"/><path class="cls-6" d="M4.4444,32.3937a3.7021,3.7021,0,0,1,.3184-1.0188A7.43,7.43,0,0,0,6.61,34.24a6.0166,6.0166,0,0,0,1.9741,1.3373c.5094.2547.5094.5094.0636.8278A3.6784,3.6784,0,0,0,7.501,37.6791a.6206.6206,0,0,1-.5731-.2547,6.5822,6.5822,0,0,1-2.3561-3.7571A2.25,2.25,0,0,1,4.4444,32.3937Z"/><path class="cls-9" d="M8.0741,6.7309a15.5186,15.5186,0,0,0-.9552,6.368,2.7068,2.7068,0,0,0,.1274.7c-.2547.5095-.5094,1.0189-.8278,1.592A2.7414,2.7414,0,0,1,6.1637,13.99a15.5785,15.5785,0,0,1,.5095-6.1769c.0637-.2547.191-.51.2547-.7642C7.2463,6.1578,7.2463,6.1578,8.0741,6.7309Z"/><path class="cls-9" d="M32.9091,13.7993a17.0465,17.0465,0,0,0-.3821-5.6674,12.8516,12.8516,0,0,1-.4457-1.4647l.0637-.0636c.7-.4458.7-.4458,1.0188.3184a12.8338,12.8338,0,0,1,.8915,4.6486,18.8929,18.8929,0,0,1-.191,3.3113,1.6185,1.6185,0,0,1-.1274.4457C33.4822,14.8182,33.2275,14.3088,32.9091,13.7993Z"/><path class="cls-10" d="M18.39,42.073a3.403,3.403,0,0,0,3.3113,0c0,.5731.0637,1.0826.0637,1.6557,0,.3184-.0637.3821-.3184.3821H18.6449c-.2547,0-.3821-.0637-.3184-.3184A15.5148,15.5148,0,0,0,18.39,42.073Z"/><path class="cls-4" d="M4.4444,32.3937a6.7921,6.7921,0,0,0,2.9929,5.2854,4.7765,4.7765,0,0,0-.3184,1.0189c-.0636.2547-.1273.3184-.3184.1274A6.0779,6.0779,0,0,1,4.4444,32.3937Z"/><path class="cls-11" d="M19.6,36.8513a1.493,1.493,0,1,1,1.2736-2.6745A1.68,1.68,0,0,1,19.6,36.8513Z"/><path class="cls-12" d="M11.1307,31.12c-.0636-.382.0637-.4457.3821-.3183a21.7691,21.7691,0,0,0,6.368,1.2735c.6368,0,.7.0637.6368.8279-.0637.5731-.4458.2547-.7005.3184-.0637,0-.191-.0637-.2547-.0637.0637-.1274.1273-.1274.2547-.191A17.7926,17.7926,0,0,1,11.1307,31.12Z"/><path class="cls-12" d="M22.4657,33.0942c-.8278.1911-.8915.1274-.8915-.6368,0-.3821.191-.4457.5094-.4457a21.2647,21.2647,0,0,0,4.9033-.7642,16.4655,16.4655,0,0,0,1.6557-.5094c.191-.0637.3821-.1274.3184.191a2.9591,2.9591,0,0,1-1.3373.8278,20.3341,20.3341,0,0,1-5.0943,1.1463c-.0637,0-.1911-.0637-.1274.0637A.2224.2224,0,0,0,22.4657,33.0942Z"/><path class="cls-13" d="M14.4421,43.2829a3.9682,3.9682,0,0,1,2.9292.4458c0,.5731-.191,1.0189-.7641,1.1462a7.7589,7.7589,0,0,1-1.7194,0h0c0-.2547.2547-.2547.3821-.2547a7.2742,7.2742,0,0,1-.7-.7C14.4421,43.7287,14.3147,43.5376,14.4421,43.2829Z"/><path class="cls-14" d="M22.7841,43.7287a3.7645,3.7645,0,0,1,2.8656-.4458c.2547.1911.0636.3184,0,.51a3.6482,3.6482,0,0,1-.9552,1.0188c-.3184.2547-.7005.0637-1.0826.0637C23.0388,44.7476,22.7841,44.4292,22.7841,43.7287Z"/><path class="cls-15" d="M22.4657,33.0942c-.2547-.0637-.7.1274-.7-.1273,0-.3184.4458-.1274.6368-.1911a25.8,25.8,0,0,0,4.9033-1.0189c.5731-.191,1.0826-.5094,1.6557-.7641.0637.3184-.191.3821-.4458.5094a15.7293,15.7293,0,0,1-5.0306,1.4647A5.5806,5.5806,0,0,1,22.4657,33.0942Z"/><path class="cls-16" d="M11.1307,31.12c.1911-.1273.3184,0,.51.1274a14.6478,14.6478,0,0,0,5.6675,1.4646,4.9141,4.9141,0,0,1,.9551.1274c.1274,0,.2548,0,.1911.191,0,.1274-.1274.1274-.2547.1274H17.626a15.6074,15.6074,0,0,1-6.1132-1.6557C11.3218,31.3749,11.1307,31.3112,11.1307,31.12Z"/><path class="cls-17" d="M23.5482,44.8749c1.0826.1274,1.4647-.7641,2.0378-1.4009v-.1911h.191a3.8124,3.8124,0,0,1,1.0189.51C26.0317,45.0023,24.8218,45.0659,23.5482,44.8749Z"/><path class="cls-18" d="M14.4421,43.2829c.191.6368.7641.8915,1.1462,1.401-.191.191-.5731-.0637-.7641.191a2.2926,2.2926,0,0,1-1.592-1.0825c.2547-.1274.5094-.3184.7641-.4458A.9441.9441,0,0,0,14.4421,43.2829Z"/><path class="cls-19" d="M19.6,36.8513c1.3373-.5731,1.5283-.9552,1.21-2.7382a1.5043,1.5043,0,0,1-1.21,2.7382Z"/><path class="cls-20" d="M20.11,32.9669c-.3184,0-.6367.191-.6367-.3821,0-.51.2547-.4458.5731-.4458s.6368-.1273.6368.4458S20.3006,32.9032,20.11,32.9669Z"/><path class="cls-18" d="M14.8878,44.8749a15.482,15.482,0,0,1,1.7194,0A3.9153,3.9153,0,0,1,14.8878,44.8749Z"/><path class="cls-1" d="M10.494,18.3206a2.0531,2.0531,0,0,1,1.974-2.1014,2.123,2.123,0,0,1,2.2925,1.8467,1.2539,1.2539,0,0,1-.7642,1.4646,3.7325,3.7325,0,0,1-2.4835.3184A1.3739,1.3739,0,0,1,10.494,18.3206Z"/><path class="cls-1" d="M27.8148,19.9126a5.0132,5.0132,0,0,1-1.2736-.2547,1.5289,1.5289,0,0,1-1.0189-2.1652,2.15,2.15,0,0,1,2.42-1.3372,2.1254,2.1254,0,0,1,1.7194,2.1651C29.6615,19.4031,29.0247,19.9126,27.8148,19.9126Z"/><path class="cls-21" d="M15.843,13.99a1.2753,1.2753,0,0,1-1.5283,1.21.2338.2338,0,0,1-.191-.0637c-.9552-.1274-1.4646-.5731-1.401-1.2736a1.7585,1.7585,0,0,1,1.8467-1.4009A1.4741,1.4741,0,0,1,15.843,13.99Z"/><path class="cls-21" d="M24.3124,13.99A1.4622,1.4622,0,0,1,25.65,12.5258a1.7465,1.7465,0,0,1,1.783,1.4646.9635.9635,0,0,1-.4458.8915,2.2421,2.2421,0,0,1-2.1014.191A1.251,1.251,0,0,1,24.3124,13.99Z"/><path class="cls-1" d="M17.626,19.9762c.7-1.0825,1.8468-1.0825,2.9293-1.0188a1.6968,1.6968,0,0,1,.7642.191,1.4662,1.4662,0,0,1,1.21,1.7194,2.1343,2.1343,0,0,1-1.1463,1.6556c-.4457.2547-.4457.2547-.0636.7005.8278.4458,1.2735.3821,1.8467-.3184a9.4227,9.4227,0,0,0,.5094-.8278.4133.4133,0,0,1,.6368-.1911.4414.4414,0,0,1,.191.6368,3.2458,3.2458,0,0,1-1.4009,1.6557.7909.7909,0,0,0-.3821.5094,3.6092,3.6092,0,0,1-1.1462,2.2288,2.1771,2.1771,0,0,1-3.184.0637,3.9511,3.9511,0,0,1-1.1462-2.2925.9707.9707,0,0,0-.3821-.6368,3.474,3.474,0,0,1-1.2736-1.592.4413.4413,0,0,1,.191-.6367.4259.4259,0,0,1,.6368.2547,3.6093,3.6093,0,0,0,.5095.8278,1.262,1.262,0,0,0,1.974.1274c.2548-.3184,0-.3821-.191-.5732A2.1512,2.1512,0,0,1,17.626,19.9762Z"/><path class="cls-22" d="M17.626,19.9762c-.1273,1.4647.7,2.1651,1.91,2.6746a1.1457,1.1457,0,0,1-.5731.3821A2.3176,2.3176,0,0,1,17.626,19.9762Z"/><path class="cls-23" d="M21.32,23.16a2.26,2.26,0,0,1-.7642-.5094,2.85,2.85,0,0,0,2.0377-1.8467,1.0707,1.0707,0,0,1-.191,1.21,3.194,3.194,0,0,1-.9552.8915C21.32,22.9692,21.1921,22.9692,21.32,23.16Z"/><path class="cls-24" d="M12.9138,16.92c.382.0637.6368.1911.6368.6368a.6546.6546,0,0,1-.6368.7005.7067.7067,0,0,1-.7-.7005A.6209.6209,0,0,1,12.9138,16.92Z"/><path class="cls-25" d="M27.9421,17.6838a.6282.6282,0,0,1-.6368.5731.7066.7066,0,0,1-.7-.7005.6941.6941,0,0,1,.6367-.7A.7437.7437,0,0,1,27.9421,17.6838Z"/><path class="cls-26" d="M20.0459,20.6767A3.528,3.528,0,0,1,18.9,20.5494c-.5094-.2548-.5094-.6368-.0636-.9552a2.9208,2.9208,0,0,1,2.42.0636c.3821.2548.3821.6368-.0637.8279A1.4036,1.4036,0,0,1,20.0459,20.6767Z"/><path class="cls-27" d="M21.1921,25.8348a1.2417,1.2417,0,0,1-2.2925,0,.5229.5229,0,0,1,.3184-.3184A2.1112,2.1112,0,0,1,21.1921,25.8348Z"/><path class="cls-28" d="M21.1921,25.8348a3.1637,3.1637,0,0,0-2.2925,0c-.2547-.1911-.3184-.3821.0637-.4458a3.5346,3.5346,0,0,1,2.2925,0C21.6379,25.5164,21.32,25.7074,21.1921,25.8348Z"/></g></svg>