<svg id="Layer_1" data-name="Layer 1" xmlns="http://www.w3.org/2000/svg" viewBox="0 0 160 31.0739"><defs><style>.cls-1{fill:#2f201c;}.cls-2{fill:#e9a448;}.cls-3{fill:#fff;}.cls-4{fill:#dbdbdb;}.cls-5{fill:#df8432;}.cls-6{fill:#df8332;}.cls-7{fill:#b7572a;}.cls-8{fill:#f3ca71;}.cls-9{fill:#ce722e;}.cls-10{fill:#de8332;}.cls-11{fill:#f2de5a;}.cls-12{fill:#a12b2a;}.cls-13{fill:#fbfbf9;}.cls-14{fill:#fffbfa;}.cls-15{fill:#bf3433;}.cls-16{fill:#c33533;}.cls-17{fill:#d8d8d7;}.cls-18{fill:#d8d8d8;}.cls-19{fill:#f8f7f5;}.cls-20{fill:#c2c2c1;}.cls-21{fill:#fffffb;}.cls-22{fill:#cacbcc;}.cls-23{fill:#cbcdcd;}.cls-24{fill:#f8f7f7;}.cls-25{fill:#f6f6f6;}.cls-26{fill:#573e39;}.cls-27{fill:#e08880;}.cls-28{fill:#e9aea6;}.cls-29{fill:#0e97db;}</style></defs><g id="Design"><path class="cls-1" d="M5.2415,20.6611a3.3188,3.3188,0,0,1,.746-2.12.4743.4743,0,0,0-.157-.7067A5.3973,5.3973,0,0,1,2.925,13.9863,8.3452,8.3452,0,0,1,3.2,10.1778a1.92,1.92,0,0,0,.0393-.8246A10.0445,10.0445,0,0,1,3.3961,3.66C3.8673,2.2858,4.6133,1.9717,5.9483,2.6A9.1089,9.1089,0,0,1,8.0292,3.9741a.4222.4222,0,0,0,.55.0786,9.16,9.16,0,0,1,7.2638.0392.4173.4173,0,0,0,.4711-.0785,9.6218,9.6218,0,0,1,1.9632-1.335,4.1779,4.1779,0,0,1,.9816-.3533,1.2386,1.2386,0,0,1,1.3742.6282A6.2759,6.2759,0,0,1,21.34,5.152a10.7251,10.7251,0,0,1-.2356,4.4761.6788.6788,0,0,0,.0392.3926,8.3681,8.3681,0,0,1,.4319,3.4159,5.4042,5.4042,0,0,1-2.984,4.3976.46.46,0,0,0-.157.7067,3.5864,3.5864,0,0,1,.7067,2.8662c0,.1178-.0785.1963.0785.3141a2.4886,2.4886,0,0,1,1.0994,2.4344,4.9923,4.9923,0,0,1-.51,1.8061A1.8932,1.8932,0,0,1,18.0414,27.1h-.6282a2.787,2.787,0,0,0-1.3742.2749,2.6032,2.6032,0,0,1-1.9632.1178c-.0392,0-.0785-.0393-.1178-.0393-.4319-.4712-.9816-.3534-1.5313-.3534h-.8245a1.9982,1.9982,0,0,0-1.0208.2749,2.3639,2.3639,0,0,1-2.4344-.1178.9012.9012,0,0,0-.55-.1571H6.38a1.9337,1.9337,0,0,1-1.7669-1.1386,4.6984,4.6984,0,0,1-.4711-1.6491.6438.6438,0,0,0-.2749-.4711,4.3476,4.3476,0,0,1-1.3349-6.0073c.0392-.0393.0785-.0786.0785-.1178a.3169.3169,0,0,1,.3533-.1571c.1571.0393.1964.1571.2356.3141a3.59,3.59,0,0,0,1.0994,2.16A2.8231,2.8231,0,0,0,5.2415,20.6611Z"/><path class="cls-2" d="M3.4354,13.633a7.2218,7.2218,0,0,1,.2749-3.18A9.27,9.27,0,0,1,7.0869,5.5839c.2356-.1963.2749-.3533.0785-.5889a9.302,9.302,0,0,0-.9815-1.1386c.157-.1571.2748-.0393.3926.0392a7.5025,7.5025,0,0,1,1.2564.9423.7369.7369,0,0,0,.746.0786,8.822,8.822,0,0,1,5.4184-.55,9.71,9.71,0,0,1,1.8061.5889.4835.4835,0,0,0,.55-.0785A9.5248,9.5248,0,0,1,17.61,3.9349c.1571-.1178.3141-.2356.5105-.1178a12.1122,12.1122,0,0,0-.9424,1.06c-.2748.3926-.2748.4712.1178.746a9.3132,9.3132,0,0,1,3.6515,6.8319,3.6537,3.6537,0,0,1-.0392,1.1386,1.5952,1.5952,0,0,1-1.4528.7853,3.304,3.304,0,0,1-2.3558-.7853,23.5982,23.5982,0,0,1-1.8061-1.6491,9.2,9.2,0,0,0-1.1779-.9816,3.2993,3.2993,0,0,0-3.9264.0393,13.8381,13.8381,0,0,0-1.61,1.4135A15.59,15.59,0,0,1,7.401,13.5152a3.57,3.57,0,0,1-2.4343.8638A1.8768,1.8768,0,0,1,3.4354,13.633Z"/><path class="cls-3" d="M3.4354,13.633a3.1541,3.1541,0,0,0,1.1387.5889,3.2421,3.2421,0,0,0,2.7877-.8245c.7067-.589,1.3742-1.2565,2.0417-1.8847a4.5452,4.5452,0,0,1,1.8453-1.1386,3.4794,3.4794,0,0,1,3.18.746c.8245.6675,1.5705,1.4527,2.3951,2.1988a3.2514,3.2514,0,0,0,2.9447.9423,2.3788,2.3788,0,0,0,1.0994-.6282,3.5323,3.5323,0,0,1-.1178.6282,9.9633,9.9633,0,0,1-.7067,1.06A7.3281,7.3281,0,0,1,17.4917,16.97a13.4808,13.4808,0,0,1-3.4944.7067,17.9107,17.9107,0,0,1-5.4184-.2748,7.8055,7.8055,0,0,1-4.0048-1.924,4.5193,4.5193,0,0,1-.9816-1.2957A2.2479,2.2479,0,0,1,3.4354,13.633Z"/><path class="cls-4" d="M3.5925,14.2219a6.2462,6.2462,0,0,1,.7852.9423,6.8524,6.8524,0,0,0,1.8454,1.3743,11.8483,11.8483,0,0,0,4.3583,1.06,17.2916,17.2916,0,0,0,5.6932-.3927,7.5891,7.5891,0,0,0,3.6907-2.0024,5.2168,5.2168,0,0,0,.55-.746c.0393-.0785.0786-.1963.2356-.1963a4.6929,4.6929,0,0,1-2.1987,2.9055,10.2076,10.2076,0,0,1-4.0442,1.2957,16.95,16.95,0,0,1-6.4392-.3534,6.9533,6.9533,0,0,1-3.5337-2.0024A4.0811,4.0811,0,0,1,3.5925,14.2219Z"/><path class="cls-2" d="M13.84,26.2758a3.4112,3.4112,0,0,1-.0392-.9031V23.41c0-.0786.0392-.0786.0785-.0393.0785.0785.0393.1963.0785.3141a24.5381,24.5381,0,0,0,2.238-2.2773,3.06,3.06,0,0,0,.7853-1.6883c0-.0393.0393-.1178.0393-.1571.157-.0785.2748-.1177.4319-.1963.1963,0,.1963.1963.2356.3141a3.7154,3.7154,0,0,1,.0392,1.61,9.7348,9.7348,0,0,1-.8638,2.7485A8.2315,8.2315,0,0,1,16,25.6868a1.2215,1.2215,0,0,1-.2748.3534.236.236,0,0,1-.1571.0393,2.9652,2.9652,0,0,0-1.5313.1963A.1782.1782,0,0,1,13.84,26.2758Z"/><path class="cls-2" d="M10.5028,24.0378c0,.746.0393,1.492,0,2.238a.25.25,0,0,1-.2355,0,2.7568,2.7568,0,0,0-1.4921-.1571.3074.3074,0,0,1-.3141-.0392,2.3184,2.3184,0,0,0-.2355-.55,14.605,14.605,0,0,1-1.5313-3.8086,4.5508,4.5508,0,0,1-.0785-1.9239c.0392-.157.0785-.3533.2355-.4319.1571.0786.2749.1178.4319.1963a.3564.3564,0,0,1,.1178.2749A2.7238,2.7238,0,0,0,8.0292,21.25a23.574,23.574,0,0,0,2.16,2.2773A.9493.9493,0,0,1,10.5028,24.0378Z"/><path class="cls-4" d="M11.1311,25.255V23.4488c0-.2748-.1178-.4319-.3927-.3926a.6375.6375,0,0,1-.1963-.3534,7.06,7.06,0,0,0-1.0994-2.0809.9281.9281,0,0,0-.51-.4319c-.0785-.0393-.1571-.0393-.1571-.1964.6283.0786,1.2565.2356,1.8847.2749.2356,0,.157.1178.0785.2748a1.4453,1.4453,0,0,0,.3534,1.6491,1.5633,1.5633,0,0,0,1.6883.3141,1.5462,1.5462,0,0,0,.8246-1.9239c-.1178-.3141,0-.3141.2355-.3141.4712-.0393.9424-.1178,1.4528-.1963.0392.1178-.0393.157-.0785.2356A6.4643,6.4643,0,0,0,13.84,22.86c-.0392.0785-.0392.157-.1178.1963-.3533-.0393-.4319.0393-.4319.3926,0,.589,0,1.1779-.0392,1.7669A1.66,1.66,0,0,1,11.1311,25.255Z"/><path class="cls-3" d="M8.7752,20.0329c.7461.2749,1.0209.9423,1.3743,1.57a3.8462,3.8462,0,0,1,.55,1.4528c-.2356.1178-.1964.3534-.1964.55v.4319A35.1113,35.1113,0,0,1,7.9114,21.25a2.6389,2.6389,0,0,1-.6282-1.6884C7.7937,19.7188,8.2648,19.8759,8.7752,20.0329Z"/><path class="cls-3" d="M13.6439,23.0955a4.7026,4.7026,0,0,1,.7853-1.8847,5.7481,5.7481,0,0,1,.8245-1.0994c.589-.157,1.2172-.3141,1.7669-.51a1.613,1.613,0,0,1-.3141,1.2564,11.6088,11.6088,0,0,1-1.9239,2.2381,10.2163,10.2163,0,0,0-.9031.9423c-.1178-.1963,0-.3927-.0785-.589A.3826.3826,0,0,0,13.6439,23.0955Z"/><path class="cls-5" d="M15.6856,26.001a13.7619,13.7619,0,0,0,1.8454-4.3583,3.7635,3.7635,0,0,0-.0785-2.2773c.0392-.0392.1178-.0785.157-.1178.4712-.2355.4712-.2355.6675.2356a3.9618,3.9618,0,0,1,.0785,2.4344,13.7748,13.7748,0,0,1-1.7668,4.0441c-.0785.1178-.1571.1963-.2356.3141C16.0783,26.2758,15.8427,26.2758,15.6856,26.001Z"/><path class="cls-5" d="M6.8513,19.3654a5.1021,5.1021,0,0,0,.2356,3.416A11.9617,11.9617,0,0,0,8.5,25.7261a.2076.2076,0,0,1-.0393.3141.4038.4038,0,0,1-.4711.2749A7.9787,7.9787,0,0,1,6.655,23.92a8.4476,8.4476,0,0,1-.8245-2.9448,3.1048,3.1048,0,0,1,.2748-1.5705c.1963-.3926.1963-.3926.55-.1571C6.7335,19.2869,6.7728,19.3262,6.8513,19.3654Z"/><path class="cls-6" d="M16.9813,26.5114a16.2959,16.2959,0,0,0,1.8454-4.0442c.0785-.2355.1571-.157.2748-.0392a2.2369,2.2369,0,0,1,.55,1.7668,4.066,4.066,0,0,1-.4319,1.492,1.4036,1.4036,0,0,1-1.0993.8246A11.0037,11.0037,0,0,1,16.9813,26.5114Z"/><path class="cls-6" d="M6.7335,26.5114a1.5594,1.5594,0,0,1-1.8061-1.2957,2.9254,2.9254,0,0,1-.1178-2.081,1.6439,1.6439,0,0,1,.4319-.7067c.1178-.1178.1963-.1963.2356.0392a15.4065,15.4065,0,0,0,1.7276,3.8479c.0785.157.0785.1963-.1178.1963Z"/><path class="cls-7" d="M20.0831,7.822a11.3366,11.3366,0,0,0-2.0024-2.3166c-.4319-.3534-.4319-.3926-.0393-.8245a6.5076,6.5076,0,0,1,1.492-1.2564.54.54,0,0,1,.1964.3141,7.0813,7.0813,0,0,1,.4319,2.238,5.9157,5.9157,0,0,1,.0392,1.1779C20.2794,7.4293,20.2794,7.6649,20.0831,7.822Z"/><path class="cls-7" d="M4.77,3.4637A5.8558,5.8558,0,0,1,6.498,4.995c.0785.1178.1178.1963,0,.3141A10.4957,10.4957,0,0,0,4.26,7.822a.3989.3989,0,0,1-.1963-.3927,11.4063,11.4063,0,0,1,.3927-3.4552A.6125.6125,0,0,1,4.77,3.4637Z"/><path class="cls-8" d="M18.12,3.7778a3.7255,3.7255,0,0,0-1.335.8638,1.0817,1.0817,0,0,1-1.4135.2749,7.7961,7.7961,0,0,0-4.1227-.589,7.4961,7.4961,0,0,0-2.9055.8245c-.1177.0786-.1963.0393-.3141-.0392-.51-.3927-.9815-.8246-1.5312-1.1779a.5225.5225,0,0,0-.3141-.1178c-.3534-.2749-.6675-.55-1.06-.8245a2.13,2.13,0,0,1,.9424.3533A11.348,11.348,0,0,1,7.8329,4.6416a.4818.4818,0,0,0,.6282.1178,8.5848,8.5848,0,0,1,7.3423,0,.4761.4761,0,0,0,.589-.0785,8.6574,8.6574,0,0,1,2.3558-1.61c.1178-.0393.1963-.0785.3141-.1178.0392,0,.0392,0,.1178.0393C18.7874,3.2674,18.4733,3.5422,18.12,3.7778Z"/><path class="cls-6" d="M2.5324,19.2869a2.282,2.282,0,0,1,.1963-.6282,4.58,4.58,0,0,0,1.1386,1.7668,3.71,3.71,0,0,0,1.2172.8246c.3141.157.3141.3141.0392.51a2.2674,2.2674,0,0,0-.7067.7853.383.383,0,0,1-.3534-.1571,4.0581,4.0581,0,0,1-1.4527-2.3165A1.3873,1.3873,0,0,1,2.5324,19.2869Z"/><path class="cls-9" d="M4.77,3.4637A9.567,9.567,0,0,0,4.1814,7.39,1.6732,1.6732,0,0,0,4.26,7.822c-.157.3141-.3141.6282-.51.9816a1.6915,1.6915,0,0,1-.157-.8638,9.6038,9.6038,0,0,1,.3141-3.8086c.0392-.1571.1178-.3141.157-.4712C4.26,3.11,4.26,3.11,4.77,3.4637Z"/><path class="cls-9" d="M20.0831,7.822a10.5093,10.5093,0,0,0-.2356-3.4945,7.9253,7.9253,0,0,1-.2748-.903l.0393-.0393c.4319-.2749.4319-.2749.6282.1963a7.9161,7.9161,0,0,1,.55,2.8662,11.6605,11.6605,0,0,1-.1178,2.0417,1.0005,1.0005,0,0,1-.0785.2749C20.4365,8.45,20.2794,8.1361,20.0831,7.822Z"/><path class="cls-10" d="M11.1311,25.255a2.0986,2.0986,0,0,0,2.0417,0c0,.3533.0392.6674.0392,1.0208,0,.1963-.0392.2356-.1963.2356H11.2881c-.157,0-.2356-.0393-.1963-.1963A9.56,9.56,0,0,0,11.1311,25.255Z"/><path class="cls-4" d="M2.5324,19.2869a4.1879,4.1879,0,0,0,1.8453,3.2589,2.9452,2.9452,0,0,0-.1963.6282c-.0392.157-.0785.1963-.1963.0785A3.7473,3.7473,0,0,1,2.5324,19.2869Z"/><path class="cls-11" d="M11.8771,22.0353a.9205.9205,0,1,1,.7852-1.649A1.0357,1.0357,0,0,1,11.8771,22.0353Z"/><path class="cls-12" d="M6.655,18.5016c-.0392-.2355.0393-.2748.2356-.1963a13.42,13.42,0,0,0,3.9263.7853c.3927,0,.4319.0392.3927.51-.0393.3534-.2749.1571-.4319.1963-.0393,0-.1178-.0392-.1571-.0392.0393-.0786.0786-.0786.1571-.1178A10.97,10.97,0,0,1,6.655,18.5016Z"/><path class="cls-12" d="M13.6439,19.7188c-.51.1178-.55.0785-.55-.3926,0-.2356.1178-.2749.3141-.2749a13.111,13.111,0,0,0,3.0233-.4711,10.1826,10.1826,0,0,0,1.0209-.3141c.1178-.0393.2356-.0786.1963.1177a1.8249,1.8249,0,0,1-.8245.5105,12.539,12.539,0,0,1-3.1411.7067c-.0393,0-.1178-.0393-.0785.0393A.1373.1373,0,0,0,13.6439,19.7188Z"/><path class="cls-13" d="M8.6967,26.001a2.4463,2.4463,0,0,1,1.8061.2748c0,.3534-.1178.6282-.4711.7067a4.7807,4.7807,0,0,1-1.06,0h0c0-.157.157-.157.2355-.157a4.4979,4.4979,0,0,1-.4319-.4319C8.6967,26.2758,8.6182,26.158,8.6967,26.001Z"/><path class="cls-14" d="M13.84,26.2758a2.3209,2.3209,0,0,1,1.7669-.2748c.157.1177.0393.1963,0,.3141a2.25,2.25,0,0,1-.589.6282c-.1963.157-.4319.0392-.6674.0392C13.9973,26.904,13.84,26.7077,13.84,26.2758Z"/><path class="cls-15" d="M13.6439,19.7188c-.157-.0393-.4319.0785-.4319-.0785,0-.1963.2749-.0786.3927-.1178a15.9131,15.9131,0,0,0,3.0232-.6282c.3534-.1178.6675-.3141,1.0209-.4712.0393.1963-.1178.2356-.2749.3141a9.6993,9.6993,0,0,1-3.1018.9031A3.4418,3.4418,0,0,1,13.6439,19.7188Z"/><path class="cls-16" d="M6.655,18.5016c.1178-.0785.1963,0,.3141.0786a9.0334,9.0334,0,0,0,3.4945.903,3.0351,3.0351,0,0,1,.5889.0785c.0786,0,.1571,0,.1178.1178,0,.0786-.0785.0786-.157.0786H10.66a9.6242,9.6242,0,0,1-3.7693-1.0209C6.7728,18.6587,6.655,18.6194,6.655,18.5016Z"/><path class="cls-17" d="M14.3114,26.9825c.6675.0786.9031-.4711,1.2564-.8638V26.001h.1178a2.3489,2.3489,0,0,1,.6282.3141A1.7884,1.7884,0,0,1,14.3114,26.9825Z"/><path class="cls-18" d="M8.6967,26.001c.1178.3926.4712.55.7068.8638-.1178.1177-.3534-.0393-.4712.1177a1.4137,1.4137,0,0,1-.9816-.6674c.1571-.0786.3141-.1964.4712-.2749A.5828.5828,0,0,0,8.6967,26.001Z"/><path class="cls-19" d="M11.8771,22.0353c.8245-.3533.9423-.5889.746-1.6883a.9275.9275,0,0,1-.746,1.6883Z"/><path class="cls-20" d="M12.1912,19.64c-.1963,0-.3927.1178-.3927-.2356,0-.3141.1571-.2749.3534-.2749s.3926-.0785.3926.2749S12.309,19.601,12.1912,19.64Z"/><path class="cls-18" d="M8.9716,26.9825a9.5636,9.5636,0,0,1,1.06,0A2.4125,2.4125,0,0,1,8.9716,26.9825Z"/><path class="cls-1" d="M6.2624,10.61A1.2658,1.2658,0,0,1,7.48,9.314,1.3089,1.3089,0,0,1,8.893,10.4526a.7732.7732,0,0,1-.4711.9031,2.3013,2.3013,0,0,1-1.5313.1963A.8471.8471,0,0,1,6.2624,10.61Z"/><path class="cls-1" d="M16.942,11.5913a3.091,3.091,0,0,1-.7852-.1571.9427.9427,0,0,1-.6282-1.335,1.3255,1.3255,0,0,1,1.492-.8245,1.31,1.31,0,0,1,1.06,1.335C18.0807,11.2771,17.6881,11.5913,16.942,11.5913Z"/><path class="cls-21" d="M9.5605,7.94a.7864.7864,0,0,1-.9423.746A.1442.1442,0,0,1,8.5,8.6465c-.589-.0785-.9031-.3534-.8638-.7853a1.0844,1.0844,0,0,1,1.1386-.8638A.909.909,0,0,1,9.5605,7.94Z"/><path class="cls-21" d="M14.7826,7.94a.9016.9016,0,0,1,.8245-.9031,1.0769,1.0769,0,0,1,1.0994.9031.594.594,0,0,1-.2749.55,1.3821,1.3821,0,0,1-1.2957.1178A.7712.7712,0,0,1,14.7826,7.94Z"/><path class="cls-1" d="M10.66,11.6305a1.7758,1.7758,0,0,1,1.8061-.6282,1.046,1.046,0,0,1,.4712.1178.904.904,0,0,1,.746,1.06,1.3162,1.3162,0,0,1-.7068,1.0209c-.2748.157-.2748.157-.0392.4319.51.2748.7852.2355,1.1386-.1964a5.8062,5.8062,0,0,0,.3141-.51.2549.2549,0,0,1,.3927-.1178.2722.2722,0,0,1,.1177.3927,2.0011,2.0011,0,0,1-.8637,1.0208.4875.4875,0,0,0-.2356.3141,2.2251,2.2251,0,0,1-.7068,1.3742,1.3422,1.3422,0,0,1-1.9631.0393,2.4358,2.4358,0,0,1-.7068-1.4135.5984.5984,0,0,0-.2356-.3926,2.1425,2.1425,0,0,1-.7852-.9816.272.272,0,0,1,.1178-.3926.2625.2625,0,0,1,.3926.157,2.2239,2.2239,0,0,0,.3141.51.7782.7782,0,0,0,1.2172.0786c.157-.1963,0-.2356-.1178-.3534A1.3263,1.3263,0,0,1,10.66,11.6305Z"/><path class="cls-22" d="M10.66,11.6305c-.0785.9031.4319,1.335,1.1779,1.6491a.7064.7064,0,0,1-.3534.2356A1.429,1.429,0,0,1,10.66,11.6305Z"/><path class="cls-23" d="M12.9372,13.5937a1.3942,1.3942,0,0,1-.4712-.3141,1.7576,1.7576,0,0,0,1.2564-1.1387.66.66,0,0,1-.1177.7461,1.9706,1.9706,0,0,1-.589.55C12.9372,13.4759,12.8586,13.4759,12.9372,13.5937Z"/><path class="cls-24" d="M7.7544,9.7459c.2356.0392.3926.1178.3926.3926a.4035.4035,0,0,1-.3926.4319.4357.4357,0,0,1-.4319-.4319A.3828.3828,0,0,1,7.7544,9.7459Z"/><path class="cls-25" d="M17.0206,10.217a.3874.3874,0,0,1-.3927.3534.4358.4358,0,0,1-.4319-.4319.4281.4281,0,0,1,.3927-.4319A.4585.4585,0,0,1,17.0206,10.217Z"/><path class="cls-26" d="M12.1519,12.0624a2.1742,2.1742,0,0,1-.7067-.0785c-.3141-.1571-.3141-.3926-.0393-.589a1.8007,1.8007,0,0,1,1.492.0393c.2356.1571.2356.3926-.0393.51A.8651.8651,0,0,1,12.1519,12.0624Z"/><path class="cls-27" d="M12.8586,15.2428a.7655.7655,0,0,1-1.4134,0,.3226.3226,0,0,1,.1963-.1964A1.3018,1.3018,0,0,1,12.8586,15.2428Z"/><path class="cls-28" d="M12.8586,15.2428a1.95,1.95,0,0,0-1.4134,0c-.1571-.1178-.1964-.2356.0392-.2749a2.18,2.18,0,0,1,1.4135,0C13.1335,15.0464,12.9372,15.1642,12.8586,15.2428Z"/></g><path d="M81.4127,9.7066a17.41,17.41,0,0,1,3.4944.0393A4.598,4.598,0,0,1,87.8126,11.12a4.4545,4.4545,0,0,1,1.06,2.3558,12.9669,12.9669,0,0,1-.51,6.3607,5.978,5.978,0,0,1-5.5754,4.2012,13.8713,13.8713,0,0,1-3.6122-.1178,3.2664,3.2664,0,0,1-.589-.1571,1.5367,1.5367,0,0,1-1.06-1.57c0-1.1779.1178-2.3558.1963-3.5337.1963-2.7877.51-5.5754.589-8.4024,0-.3926.0785-.4712.4711-.4712C79.6066,9.7851,80.47,9.7459,81.4127,9.7066Zm3.9656,6.0466a5.2275,5.2275,0,0,0-.2356-1.7276,1.7826,1.7826,0,0,0-1.4135-1.2564,7.2544,7.2544,0,0,0-1.8453,0c-.1964,0-.2749.0785-.2749.3141-.1178,2.5128-.3141,5.065-.51,7.5778,0,.2356.0392.2749.2356.2749h.1963A3.027,3.027,0,0,0,85.0642,18.58,10.0256,10.0256,0,0,0,85.3783,15.7532Z"/><path d="M38.537,16.4992c.0392.0785.1178.0785.1963.1178A2.7275,2.7275,0,0,1,40.5,19.0121a5.0711,5.0711,0,0,1-.0785,1.7275A3.7364,3.7364,0,0,1,37.83,23.5274a10.9865,10.9865,0,0,1-5.85.3141,1.8408,1.8408,0,0,1-1.6491-2.081c0-1.4135.1963-2.827.2748-4.2405.1571-2.395.4319-4.79.5105-7.1852,0-.51.0392-.55.55-.55a33.5147,33.5147,0,0,1,4.4367-.1178,7.5573,7.5573,0,0,1,2.4344.55A3.0221,3.0221,0,0,1,40.5394,13.24a4.6938,4.6938,0,0,1-.2748,1.6491A2.8232,2.8232,0,0,1,38.537,16.4992Zm-3.2982,4.9865a1.6832,1.6832,0,0,0,1.8062-1.06,2.3352,2.3352,0,0,0,.0392-1.3742,1.355,1.355,0,0,0-1.0208-1.0208,4.0757,4.0757,0,0,0-1.6884,0c-.1963.0392-.2355.1178-.2355.2748-.0393.6675-.1178,1.3742-.1178,2.0417,0,.3141-.2356.7068.0785.9423a2.0953,2.0953,0,0,0,.9816.1964Zm.2749-9.07a5.868,5.868,0,0,0-.8246.0785c-.1177,0-.1963.0393-.1963.1963-.0392.7853-.0785,1.5706-.1178,2.3951,0,.1178.0393.1963.1571.1963a3.5206,3.5206,0,0,0,1.8061,0,1.3128,1.3128,0,0,0,.9816-1.3349,1.2978,1.2978,0,0,0-.9423-1.3743A1.3655,1.3655,0,0,0,35.5137,12.4158Z"/><path d="M109.4468,14.1826a2.9073,2.9073,0,0,0,.0393-.8245c0-.2748.1178-.4319.4319-.3926.4319.0392.8638,0,1.2957.0392a1.4265,1.4265,0,0,1,1.4135,1.4921,16.0768,16.0768,0,0,1-.0786,2.7484c-.1178,2.0024-.2748,4.0049-.5889,6.0073a9.6117,9.6117,0,0,1-.3141,1.4528,3.7785,3.7785,0,0,1-2.16,2.4736,7.8072,7.8072,0,0,1-5.654.157,2.5534,2.5534,0,0,1-1.06-.6675,1.5111,1.5111,0,0,1-.51-1.649,1.6269,1.6269,0,0,1,1.4135-1.0209.77.77,0,0,1,.903.3927,2.1536,2.1536,0,0,0,2.2773.8638,1.9189,1.9189,0,0,0,1.6491-1.5313,5.5087,5.5087,0,0,0,.2356-1.9632c-.1178,0-.1178.0785-.1571.1571a3.1466,3.1466,0,0,1-2.984,1.4134,3.2288,3.2288,0,0,1-3.2981-2.9447,8.1127,8.1127,0,0,1,.6674-5.2613,4.2433,4.2433,0,0,1,4.79-2.1988,2.1017,2.1017,0,0,1,1.5313,1.2172c0,.0392.0392.0785.0785.1178C109.4076,14.1826,109.4468,14.1826,109.4468,14.1826ZM109.29,17.52a3.7832,3.7832,0,0,0-.1963-1.2564,1.2255,1.2255,0,0,0-1.178-.8638,1.6906,1.6906,0,0,0-1.6883.9816,5.0653,5.0653,0,0,0-.3926,3.22,1.13,1.13,0,0,0,.8638.9423,1.8833,1.8833,0,0,0,2.1987-.9816A4.2254,4.2254,0,0,0,109.29,17.52Z"/><path d="M71.7146,21.7212A3.6082,3.6082,0,0,1,70.38,22.9384a3.9478,3.9478,0,0,1-3.573-.0785,2.95,2.95,0,0,1-1.4135-2.5129,15.9786,15.9786,0,0,1,.0785-3.0625c.0785-1.1779.1963-2.3558.2749-3.5338.0392-.5889.1963-.746.7852-.746a8.5326,8.5326,0,0,1,.9816.0393,1.4282,1.4282,0,0,1,1.492,1.6491c0,.8638-.1178,1.7276-.1963,2.5521a10.0022,10.0022,0,0,0-.157,2.1595,1.2577,1.2577,0,0,0,2.0809.9423,3.1184,3.1184,0,0,0,1.0209-1.5313,11.7759,11.7759,0,0,0,.4319-2.8662c.0785-.8245.1178-1.61.1963-2.4343.0393-.4319.157-.55.5889-.55a4.7973,4.7973,0,0,1,1.4921.1178,1.4,1.4,0,0,1,1.1386,1.4527c0,1.4528-.1571,2.8663-.2748,4.319-.0786,1.5313-.2356,3.0233-.3534,4.5546a4.3549,4.3549,0,0,1-4.0442,4.28,8.848,8.848,0,0,1-4.0441-.3534,3.943,3.943,0,0,1-1.4135-.8245,1.3546,1.3546,0,0,1,.51-2.3558,1.9437,1.9437,0,0,1,.51-.1178c.6282-.1178.6675-.1178,1.0208.4319a1.7875,1.7875,0,0,0,1.5706.7852,2.0226,2.0226,0,0,0,2.4343-1.6883A5.7954,5.7954,0,0,0,71.7146,21.7212Z"/><path d="M57.0693,14.4182a1.076,1.076,0,0,1,.1571-.1963,3.0936,3.0936,0,0,1,3.2589-1.4135,3.1754,3.1754,0,0,1,2.9054,2.5522,8.5833,8.5833,0,0,1-.4319,5.7717,4.827,4.827,0,0,1-4.2011,2.9055,7.2157,7.2157,0,0,1-2.4344-.1178,3.474,3.474,0,0,1-2.9055-3.2589,27.137,27.137,0,0,1,.0786-3.573c.157-2.5128.4319-4.9864.51-7.4993,0-.3926.0392-.4319.4711-.4319a8.5082,8.5082,0,0,1,1.4135.0393,1.49,1.49,0,0,1,1.3742,1.61c0,1.0994-.1177,2.16-.1963,3.2589Zm-.4319,4.3583a5.2032,5.2032,0,0,0,.2356,1.7668,1.2568,1.2568,0,0,0,1.3742.9031,1.5688,1.5688,0,0,0,1.3743-.9031,5.7672,5.7672,0,0,0,.4319-4.1226,1.19,1.19,0,0,0-1.335-.9816,1.6505,1.6505,0,0,0-1.61,1.0994A4.8855,4.8855,0,0,0,56.6374,18.7765Z"/><path d="M47.6068,22.428a4.6021,4.6021,0,0,1-.5889.6282,3.8649,3.8649,0,0,1-4.162.746,2.3561,2.3561,0,0,1-1.4134-2.4736,3.3613,3.3613,0,0,1,2.4343-3.0625,10.1631,10.1631,0,0,1,3.6122-.6675c.2356,0,.3534-.0786.3534-.3141a4.1108,4.1108,0,0,0-.0393-.9816.8742.8742,0,0,0-.746-.746A1.3336,1.3336,0,0,0,45.29,16.5777c-.0393.0785-.0393.1571-.0785.2356-.1571.589-.1964.6282-.7853.589-.1963,0-.3926-.0393-.589-.0393a1.4154,1.4154,0,0,1-1.2957-1.8454,2.8331,2.8331,0,0,1,1.335-1.9239,5.2745,5.2745,0,0,1,2.3165-.6675,7.3963,7.3963,0,0,1,2.7878.1963,2.94,2.94,0,0,1,2.2772,2.8663,24.0734,24.0734,0,0,1-.1963,2.9055c-.0392.4711-.1178.9816-.1178,1.4527a.8942.8942,0,0,0,.7853,1.0209c.3534.0785.3926.2355.3926.55a2.2649,2.2649,0,0,1-1.6883,2.1987,2.716,2.716,0,0,1-1.3742,0,1.7679,1.7679,0,0,1-1.2957-1.2172A3.3068,3.3068,0,0,1,47.6068,22.428Zm-.3533-3.22a4.3475,4.3475,0,0,0-1.4135.3141,1.2448,1.2448,0,0,0-.746.5889.8293.8293,0,0,0-.0393.9424.7976.7976,0,0,0,.7853.3926,1.6124,1.6124,0,0,0,1.0994-.4319,2.3233,2.3233,0,0,0,.7067-1.4528C47.6854,19.2084,47.6854,19.1691,47.2535,19.2084Z"/><path d="M90.2862,19.2084a7.7287,7.7287,0,0,1,.5105-3.0626,4.9217,4.9217,0,0,1,3.9656-3.2588,7.83,7.83,0,0,1,3.0233,0,3.6007,3.6007,0,0,1,3.0625,3.3373,8.3054,8.3054,0,0,1-.6282,4.6724,5.1433,5.1433,0,0,1-4.3975,3.1018,7.3977,7.3977,0,0,1-2.2773-.0785A3.7489,3.7489,0,0,1,90.404,20.7,6.7251,6.7251,0,0,1,90.2862,19.2084Zm7.2245-1.492a4.7911,4.7911,0,0,0-.157-1.335,1.344,1.344,0,0,0-1.2565-.9423,1.9148,1.9148,0,0,0-2.0417,1.2564,5.9514,5.9514,0,0,0-.3926,2.3558,3.8,3.8,0,0,0,.3141,1.61,1.3335,1.3335,0,0,0,1.2564.7853,1.8711,1.8711,0,0,0,1.7276-1.2172A6.4481,6.4481,0,0,0,97.5107,17.7164Z"/><path d="M120.0087,12.7692a5.774,5.774,0,0,1,1.8846.2355,2.6713,2.6713,0,0,1,1.9239,3.0233,3.17,3.17,0,0,1-1.8846,2.67,9.3327,9.3327,0,0,1-3.4552.8638c-.2356,0-.4319.0393-.6675.0393-.157,0-.2355.0393-.1963.2356a1.83,1.83,0,0,0,2.3166,1.7276,1.6237,1.6237,0,0,0,.9423-.6675c.3141-.4319.4712-.4712.9816-.3141a1.4163,1.4163,0,0,1,.6282,2.3951,3.5852,3.5852,0,0,1-2.0024.9816,6.51,6.51,0,0,1-3.573-.1964,3.7683,3.7683,0,0,1-2.5914-2.9055,7.835,7.835,0,0,1,.9816-5.6932,5.1486,5.1486,0,0,1,4.5153-2.395Zm-.589,2.67a1.3251,1.3251,0,0,0-1.1779.7067,4.8089,4.8089,0,0,0-.55,1.6491c-.0393.1963.0392.1963.1963.1963.2356-.0393.4319-.0393.6675-.0785a2.6292,2.6292,0,0,0,1.57-.7068,1.0779,1.0779,0,0,0,.1963-1.2171A.9331.9331,0,0,0,119.42,15.4391Z"/><path class="cls-29" d="M134.3628,24.054a2.369,2.369,0,0,1-1.1947-.2356,1.4358,1.4358,0,0,1-.5681-.5867q-1.02-2.0963-1.91-4.0173-.8921-1.9188-1.8126-3.879.0187,2.1156.0587,4.2124t.0782,4.2119c0,.1965-.1049.2943-.3129.2943h-1.0783a2.2519,2.2519,0,0,1-1.577-.441,1.7226,1.7226,0,0,1-.46-1.3023c0-.1573.01-.4214.0293-.7938s.0489-.8134.0889-1.3228.0809-1.0677.1271-1.6757q.0681-.9094.1467-1.8508.1175-1.4889.1956-2.4687t.128-1.6557q.048-.6761.0685-1.1557.0186-.48.0391-.95c0-.196.104-.2942.3138-.2942h1.5672a3.202,3.202,0,0,1,1.0579.1471,1.8583,1.8583,0,0,1,.6756.4018,2.0182,2.0182,0,0,1,.4214.5779q.1574.3233.2942.676.4694,1.2148.8321,2.0962t.6374,1.5481q.2733.6661.48,1.1557t.3814.9014q.1773.4107.3529.793t.3725.8338q0-1.1574-.01-2.3806-.0107-1.2249-.02-2.3909-.0106-1.1655-.0195-2.2433-.0106-1.0774-.01-1.94,0-.1761.3334-.1765h1.0774a3.3528,3.3528,0,0,1,1.0285.1276,1.3435,1.3435,0,0,1,.5974.372,1.2489,1.2489,0,0,1,.2845.5978,4.2736,4.2736,0,0,1,.0684.8032q0,.49-.0586,1.4988t-.1378,2.2629q-.0788,1.2534-.176,2.5957t-.1858,2.4785q-.0894,1.1374-.1574,1.9308c-.0453.528-.0747.8392-.088.93a.2737.2737,0,0,1-.1076.2355.4053.4053,0,0,1-.2453.0783Z"/><path class="cls-29" d="M142.768,18.3921l-.3725,5.3676c-.0133.1049-.0231.18-.0293.2258s-.0685.0685-.1858.0685h-1.0783a2.2918,2.2918,0,0,1-1.5673-.4312,1.5914,1.5914,0,0,1-.47-1.2339q0-.3919.0586-1.3423t.1574-2.1655q.0974-1.2135.1956-2.566t.1964-2.5473q.0974-1.1949.1565-2.0962t.0586-1.2344c0-.196.1041-.2942.3139-.2942h6.8965a.4124.4124,0,0,1,.2152.0591.2311.2311,0,0,1,.0978.2156l-.0783,1.1556a1.6879,1.6879,0,0,1-.3236.95,1.4409,1.4409,0,0,1-1.1654.3627h-2.7033l-.1965,2.7625h2.7825a.41.41,0,0,1,.2151.0587.2292.2292,0,0,1,.0978.2155l-.0782,1.1561a1.6907,1.6907,0,0,1-.3227.95,1.4451,1.4451,0,0,1-1.1664.3626Z"/><path class="cls-29" d="M154.5041,12.8863,153.7592,23.76c-.0134.1965-.0854.2943-.2152.2943h-1.0774a2.2926,2.2926,0,0,1-1.5681-.4312,1.5915,1.5915,0,0,1-.47-1.2339q0-.2946.0293-.8818t.0889-1.3815q.0588-.7934.1272-1.7246.0679-.9294.1466-1.881.0788-.9495.1467-1.89t.128-1.7437H147.96c-.1431,0-.2151-.0915-.2151-.2746l.0587-1.097a2.6368,2.6368,0,0,1,.088-.5,1.2327,1.2327,0,0,1,.2258-.441,1.1284,1.1284,0,0,1,.4018-.3133,1.3713,1.3713,0,0,1,.5974-.1178h8.7581a.4124.4124,0,0,1,.2151.0591.2311.2311,0,0,1,.0978.2156l-.0782,1.1556a1.6894,1.6894,0,0,1-.3236.95,1.4412,1.4412,0,0,1-1.1655.3627Z"/></svg>