<?xml version="1.0" encoding="utf-8"?>
<!-- Generator: Adobe Illustrator 26.1.0, SVG Export Plug-In . SVG Version: 6.00 Build 0)  -->
<svg version="1.1" xmlns="http://www.w3.org/2000/svg" xmlns:xlink="http://www.w3.org/1999/xlink" x="0px" y="0px"
	 viewBox="0 0 1093.4 1093.4" style="enable-background:new 0 0 1093.4 1093.4;" xml:space="preserve">
<style type="text/css">
	.st0{fill:#D11111;}
	.st1{fill:#F2E3D6;}
	.st2{fill:#1E1312;}
	.st3{fill:#EAD0B5;}
	.st4{fill:#BC9C7E;}
	.st5{fill:none;stroke:#1E1312;stroke-width:1.7154;stroke-linecap:round;stroke-miterlimit:10;}
	.st6{fill:#05BBF5;}
	.st7{fill:#0975B7;}
	.st8{fill:none;stroke:#1E1312;stroke-width:1.7101;stroke-linecap:round;stroke-miterlimit:10;}
	.st9{fill:none;stroke:#1E1312;stroke-width:1.5869;stroke-linecap:round;stroke-miterlimit:10;}
	.st10{fill:#AD6642;}
	.st11{fill:#9B5435;}
	.st12{fill:#7A3A1F;}
	.st13{fill:none;stroke:#1E1312;stroke-width:1.5869;stroke-miterlimit:10;}
	.st14{fill:none;stroke:#1E1312;stroke-width:6.4042;stroke-linecap:round;stroke-miterlimit:10;}
	.st15{fill:#343434;}
	.st16{fill:none;stroke:#1E1312;stroke-width:3.1738;stroke-miterlimit:10;}
	.st17{fill:#FFBF31;}
	.st18{fill:#E2E2E2;}
	.st19{fill:#7A7A7A;}
	.st20{fill:#996123;}
	.st21{fill:none;stroke:#1E1312;stroke-width:1.5869;stroke-linecap:round;stroke-miterlimit:10;stroke-dasharray:4.8277,8.0462;}
	.st22{fill:none;stroke:#1E1312;stroke-width:1.5869;stroke-linecap:round;stroke-miterlimit:10;stroke-dasharray:4.7606,7.9344;}
	.st23{fill:none;stroke:#1E1312;stroke-width:4.7606;stroke-linecap:round;stroke-miterlimit:10;}
	.st24{fill:#FFFFFF;}
	.st25{fill:#7C3D22;}
	.st26{fill:none;stroke:#1E1312;stroke-width:3.4913;stroke-miterlimit:10;}
	.st27{fill:none;stroke:#1E1312;stroke-width:2.9136;stroke-miterlimit:10;}
</style>
<g id="Layer_7">
	<g>
		<path class="st0" d="M281.8,653c-44.5,16.4-30.5,74-55.7,110.4s-50.7,47-41.4,83.8c9.3,36.8,126.9,26.3,215.7-3.4
			c88.8-29.7,91.8-72.7,72.6-97.7c-19.2-25-55.7-28.2-80.7-36.6C367.3,701.1,335.6,633.2,281.8,653z"/>
		<path class="st1" d="M258.7,710.6c1.9-13.7-4.2-16.8-10.1-16.7c-5.4,18.9-7.7,40.6-16.4,59C243.3,746.7,255.8,731.9,258.7,710.6z"
			/>
		<path class="st1" d="M251.9,684c14.5-4.2,16.6-16.9,16.6-23.7C260.6,666.5,255.5,674.7,251.9,684z"/>
		<path class="st1" d="M272.9,716.3c-13,3.6-21.4,32.2-18.3,42.8c3.1,10.5,18.7,13.6,33.6,8.5c14.9-5.1,14.9-22.8,13.5-28.6
			S295,710.2,272.9,716.3z"/>
		<path class="st1" d="M207.3,805.3c14.5-14.5,15.2-27.6,13.8-35.1c-16.9,22.4-33,34.7-37.3,52.7
			C190.9,819.6,198.9,813.8,207.3,805.3z"/>
		<path class="st1" d="M401.3,712.2c-12.3,1-26.2,3.7-36.1,10.2c-19,12.5,24.3,22.8,61.6,18.6c15.3-1.7,23.9-6.5,26.2-11.7
			C436.9,720.6,417.6,716.8,401.3,712.2z"/>
		<path class="st1" d="M360.6,698.5c6.5,4.4,13.5,4.5,19.1,3c-8.6-7.4-18-18.2-28.9-28.1C350.2,679.7,350.5,691.7,360.6,698.5z"/>
		<g>
			<path class="st2" d="M282,653.5c-3.9,1.5-7.7,3.4-11.2,5.8c-3.5,2.4-6.5,5.4-9.2,8.6c-2.6,3.3-4.9,6.9-6.7,10.7
				c-1.8,3.8-3.3,7.8-4.6,11.8c-5.1,16.2-7.1,33.3-12.4,49.7c-1.3,4.1-2.8,8.1-4.6,12.1c-1.8,3.9-3.8,7.7-6.3,11.3
				c-4.8,7.1-10.1,13.8-15.7,20.4c-5.5,6.6-11.3,12.9-16.3,19.6c-2.5,3.4-4.8,6.9-6.7,10.7c-1.9,3.7-3.1,7.7-3.8,11.8
				c-0.7,4.1-0.6,8.3-0.1,12.4c0.2,2.1,0.6,4.1,1.1,6.2c0.5,2.1,0.9,4,1.8,5.7c1.8,3.6,4.8,6.4,8.2,8.6c1.7,1.1,3.6,2,5.5,2.9
				c1.9,0.8,3.8,1.6,5.8,2.2c8,2.5,16.4,3.7,24.8,4.4c8.4,0.7,16.9,0.7,25.4,0.5c17-0.5,33.9-2.3,50.7-4.8c16.8-2.6,33.5-6,50-10.1
				c16.5-4,32.9-8.8,48.9-14.4c8-2.9,15.8-6.1,23.5-9.7c7.6-3.7,15-7.8,21.9-12.7c6.8-4.9,13.3-10.3,18.4-16.9
				c5.2-6.5,9-14.1,10.1-22.3c1.2-8.1-0.4-16.6-4.2-23.9c-3.8-7.4-9.6-13.7-16.3-18.6c-6.8-5-14.4-8.6-22.4-11.6
				c-7.9-3-16.2-5.2-24.4-7.4c-4.1-1.1-8.3-2.2-12.4-3.3c-2.1-0.6-4.1-1.2-6.2-1.8c-1-0.3-2-0.6-3.1-1c-1-0.4-2.1-0.8-3-1.4
				c-3.9-2.1-7.3-4.8-10.5-7.6c-3.2-2.9-6.3-5.9-9.3-8.9c-6-6.1-11.9-12.2-18.1-18c-6.3-5.8-12.9-11.2-20.2-15.5
				c-7.3-4.3-15.3-7.5-23.7-8.4l-1.6-0.2l-1.6-0.1c-1.1,0-2.1-0.1-3.2-0.1c-2.1,0.1-4.2,0.1-6.3,0.5
				C290.1,650.9,286,652.2,282,653.5z M281.7,652.5c4.1-1.4,8.2-2.6,12.5-3.1c2.1-0.4,4.3-0.4,6.4-0.5c1.1,0,2.2,0.1,3.2,0.1
				l1.6,0.1l1.6,0.2c8.6,0.9,16.8,4.2,24.2,8.5c7.4,4.4,14.1,9.8,20.5,15.6c6.3,5.8,12.3,12,18.3,18c3,3,6.1,6,9.2,8.8
				c3.2,2.8,6.5,5.4,10.2,7.3c0.9,0.5,1.9,0.8,2.8,1.2c1,0.4,2,0.7,3,1c2,0.6,4.1,1.2,6.1,1.8c4.1,1.1,8.2,2.2,12.4,3.2
				c8.3,2.1,16.6,4.3,24.7,7.2c8.1,2.9,16,6.6,23.1,11.7c7,5.1,13.2,11.6,17.4,19.4c4.2,7.7,6,16.8,4.8,25.7
				c-1.1,8.8-5.2,17.1-10.5,23.9c-1.3,1.8-2.8,3.4-4.2,5c-0.7,0.8-1.5,1.6-2.3,2.3c-0.8,0.8-1.5,1.6-2.4,2.3l-2.4,2.2
				c-0.8,0.7-1.7,1.4-2.5,2.1c-1.7,1.4-3.4,2.6-5.2,3.9c-7.1,5-14.6,9.3-22.3,13.1c-7.8,3.8-15.7,7-23.8,10
				c-16.2,5.8-32.6,10.6-49.2,14.8c-16.6,4.1-33.5,7.4-50.4,9.9c-17,2.5-34,4.2-51.2,4.6c-8.6,0.2-17.2,0-25.8-0.8
				c-8.6-0.8-17.2-2.1-25.5-4.8c-2.1-0.7-4.1-1.5-6.1-2.4c-2-0.9-4-1.9-5.8-3.2c-3.7-2.4-7.2-5.6-9.2-9.8c-0.5-1-0.9-2.1-1.2-3.2
				l-0.2-0.8l-0.2-0.8l-0.4-1.6c-0.5-2.1-0.8-4.3-1-6.5c-0.5-4.3-0.5-8.8,0.3-13.1c0.8-4.3,2.2-8.6,4.2-12.5c2-3.9,4.4-7.5,7-11
				c5.3-6.8,11.1-13.1,16.6-19.6c5.6-6.4,10.9-13.1,15.8-20c4.8-7,8.2-14.8,10.8-22.8c5.2-16.2,7.4-33.3,12.6-49.6
				c1.3-4.1,2.9-8.1,4.7-12c1.9-3.9,4.2-7.6,6.9-10.9c2.7-3.3,5.9-6.4,9.5-8.8C273.7,655.9,277.6,654,281.7,652.5z"/>
		</g>
		<path class="st3" d="M346.6,852.7c-56.8,12.4-134.9,15.1-149.7,0.7c-14.8-14.4,27.4-47.3,132.5-72.8
			c105.1-25.5,138.5-18.9,145.8-5.4C482.4,788.7,454.8,829.1,346.6,852.7z"/>
		<path class="st4" d="M320.7,816.4c-50.2,21.3-14.5,35.7-14.5,35.7l-15.6,1.1c0,0,6.7,1.3,18,5.9c13.1-1.7,26-3.9,38-6.5
			C403.4,840.3,438,823.3,457,808c5.9-4.8,2.9-14.3-4.7-14.8C415.3,791,353.5,802.4,320.7,816.4z"/>
		<path class="st5" d="M346.6,852.7c-56.8,12.4-134.9,15.1-149.7,0.7c-14.8-14.4,27.4-47.3,132.5-72.8
			c105.1-25.5,138.5-18.9,145.8-5.4C482.4,788.7,454.8,829.1,346.6,852.7z"/>
		<path class="st1" d="M295.9,655.5c-21,5.4-10.6,43.4,24.3,35.7S322.6,648.7,295.9,655.5z"/>
		<path class="st1" d="M316.1,706.1c-19.4,6.7-8.7,24.3,8.7,20.2C342.3,722.1,334.7,699.6,316.1,706.1z"/>
		<path class="st3" d="M360.7,810.9c-16.6,0.5-45.8,3.1-65.8,13.7c-4.7,2.5-7.2,7.7-6.3,12.9c2.8,16,6.6,54.1-11,91.1
			c-8.9,18.7-6.1,40.8,7.1,56.8l0,0h106.1l4.2-7c9.7-16.2,10-36.3,1-52.9c-9.7-17.8-20.1-49.1-22-102.2
			C373.7,816.2,367.7,810.7,360.7,810.9z"/>
		<path class="st4" d="M289.2,846.2l1.4,7c0,0,46.7,8.8,101.8,65.1c-8.5-18.6-16.8-48.4-18.5-95.1c-0.3-7.1-6.2-12.6-13.2-12.4
			c-9.4,0.3-22.7,1.2-36.2,3.9c-1.3,0.5-2.5,1.4-3.8,1.6C278.1,820.8,289.2,846.2,289.2,846.2z"/>
		<g>
			<path class="st2" d="M360.7,811.2c-9.8,0.4-19.7,1.3-29.4,2.9c-9.7,1.6-19.3,3.9-28.4,7.6l-3.4,1.5c-1.1,0.5-2.2,1.1-3.3,1.6
				c-1.1,0.5-2.1,1.1-3,1.9c-0.9,0.7-1.6,1.6-2.2,2.6c-1.2,1.9-1.8,4.2-1.7,6.5c0,0.6,0.1,1.1,0.2,1.7l0.3,1.8
				c0.2,1.2,0.4,2.4,0.6,3.7c1.4,9.8,2,19.8,1.7,29.7c-0.3,9.9-1.5,19.9-3.8,29.6l-0.9,3.6c-0.3,1.2-0.6,2.4-1,3.6l-1.1,3.6
				c-0.4,1.2-0.7,2.4-1.2,3.6l-1.3,3.5c-0.4,1.2-0.8,2.4-1.4,3.5l-3,6.8c-3.9,8.7-5.3,18.5-4.2,28c0.6,4.8,1.8,9.4,3.7,13.9
				c1.8,4.5,4.3,8.7,7.2,12.5c0.6,0.3-0.8-0.4-0.6-0.3h0h0.1h0.1h0.2h0.4h0.8h1.7h3.3h6.6h13.3h26.5h53.1h0L390,985
				c2-3.4,4.2-6.7,6-10.1c1.8-3.5,3.2-7.1,4.1-10.9c2-7.5,2.2-15.5,0.8-23.2c-0.7-3.8-1.9-7.6-3.5-11.2c-1.6-3.6-3.6-7-5.2-10.6
				c-3.3-7.2-5.9-14.7-8.1-22.2c-2.2-7.6-3.9-15.3-5.4-23c-1.4-7.8-2.5-15.6-3.3-23.4c-0.4-3.9-0.8-7.8-1-11.8l-0.4-5.9l-0.3-5.9
				c-0.1-2-0.1-4-0.5-5.8c-0.4-1.9-1.3-3.6-2.5-5.1C368.4,812.8,364.5,811.1,360.7,811.2z M360.7,810.6c4-0.1,8.1,1.7,10.6,4.9
				c1.3,1.6,2.2,3.4,2.6,5.4c0.2,1,0.3,2,0.4,3l0.1,2.9l0.3,5.9l0.4,5.9c0.2,3.9,0.7,7.8,1,11.8c0.9,7.8,1.9,15.6,3.3,23.4
				c1.4,7.7,3.2,15.4,5.4,23c2.2,7.5,4.9,15,8.2,22.1c1.6,3.6,3.6,6.9,5.3,10.6c1.6,3.6,2.8,7.4,3.6,11.3c1.6,7.8,1.5,15.9-0.5,23.7
				c-1,3.9-2.3,7.6-4.1,11.2c-1.8,3.6-3.9,6.9-5.9,10.3l-0.2,0.4h-0.5h0h-53.1h-26.5h-13.3h-6.6h-3.3h-1.7h-0.8H285h-0.2h-0.1h-0.1
				h0c0.1,0.1-1.3-0.6-0.7-0.3c-3.3-3.7-6.1-8-8.2-12.6c-2.1-4.6-3.6-9.5-4.3-14.5c-1.5-10-0.1-20.5,4.1-29.8l3-6.7
				c0.5-1.1,0.9-2.2,1.4-3.4l1.3-3.4c0.5-1.1,0.8-2.3,1.2-3.5l1.1-3.5c0.4-1.2,0.7-2.3,1-3.5l0.9-3.5c2.3-9.5,3.6-19.2,4.1-29
				c0.5-9.8,0.1-19.6-1.1-29.3c-0.2-1.2-0.3-2.4-0.5-3.6l-0.3-1.8c-0.1-0.6-0.2-1.3-0.2-2c-0.1-2.7,0.7-5.3,2.2-7.5
				c0.7-1.1,1.6-2.1,2.6-2.9c1-0.8,2.2-1.5,3.3-2c1.1-0.5,2.2-1.1,3.4-1.6l3.4-1.4c9.3-3.5,19-5.7,28.8-7.2
				C340.9,811.6,350.8,810.9,360.7,810.6z"/>
		</g>
	</g>
</g>
<g id="FUR">
	<g>
		<path class="st6" d="M382.8,901.4C310,854.3,290.8,731.7,366.5,706c41.4-14.1,81.5,3.5,109.4,22.4l-30.2,62.1
			c0,0,71.2,68.3,82.4,162.9c1.7,14.5-9.6,27.3-24.2,27.3H339c-8.7,0-15-8.5-12.4-16.8c8.9-28.9,38.5-83.3,134.1-64.4"/>
		<path class="st7" d="M450.4,794.5c0,0,46.6,55,59.9,91.7c13.3,36.8,18.6,72.8,14.8,81.1s-12.5,13.6-27.7,13.3
			c-15.2-0.4-152.8,1.1-159.6,0.8c-6.8-0.4-14.8-11.4-11.4-19.7s5.3-4.5,5.3-4.5s-3.8,10.2,19,10.2c22.7,0,99.3,0,127,0
			C505.3,967.4,530,938.2,450.4,794.5z"/>
		<g>
			<path class="st2" d="M413.4,933.4c-4.9,1.7-9.6,4.2-13.8,7.2c-4.2,3-8.1,6.5-11.1,10.6c-3.1,4.1-5.4,8.6-6.8,13.5
				c-1.4,4.8-1.7,9.9-1.5,14.9c0.1,1.5-1.1,2.8-2.6,2.9s-2.8-1.1-2.9-2.6c0-0.1,0-0.1,0-0.2c0.1-5.5,0.9-11.1,2.9-16.3
				c1.9-5.2,4.8-10,8.4-14.2c3.6-4.1,7.9-7.5,12.5-10.3c4.6-2.8,9.5-5,14.7-6.4c0.3-0.1,0.5,0.1,0.6,0.3
				C413.8,933,413.6,933.3,413.4,933.4L413.4,933.4z"/>
		</g>
		<g>
			<path class="st2" d="M369.1,931.6c-3.7,2.5-6.9,5.9-9.6,9.5c-2.7,3.7-4.8,7.7-6.4,11.9c-1.6,4.2-2.7,8.6-3.3,13
				c-0.5,4.4-0.6,9-0.4,13.5c0.1,1.5-1.1,2.8-2.6,2.9s-2.8-1.1-2.9-2.6c0-0.1,0-0.2,0-0.2l0,0c0.2-4.8,0.6-9.5,1.6-14.2
				c1-4.7,2.5-9.3,4.5-13.6c2-4.3,4.6-8.3,7.7-11.9c3.1-3.6,6.6-6.8,10.8-9.1c0.2-0.1,0.5-0.1,0.7,0.2
				C369.4,931.2,369.4,931.4,369.1,931.6L369.1,931.6z"/>
		</g>
		<path class="st3" d="M476.4,728.8c0,0-41.5-29.6-93.8-20.5s-74.5,79-39.2,149.6c0,0-55.3-79.6-4.5-133.1
			C392.8,667.9,476.4,728.8,476.4,728.8z"/>
		<g>
			<path class="st2" d="M475.4,729c-6.1-4.1-12.4-7.8-18.9-11.2c-1.6-0.8-3.2-1.7-4.9-2.5l-5-2.3c-3.4-1.4-6.7-2.8-10.2-4
				c-3.4-1.3-7-2.2-10.5-3.2c-3.6-0.8-7.1-1.7-10.7-2.2c-1.8-0.3-3.6-0.6-5.4-0.8c-1.8-0.2-3.6-0.4-5.4-0.5c-3.6-0.1-7.3-0.3-10.9,0
				c-3.6,0-7.2,0.6-10.8,1.1c-1.8,0.3-3.6,0.7-5.3,1.1l-2.7,0.6l-2.6,0.8c-1.7,0.5-3.5,1-5.2,1.6c-1.7,0.6-3.4,1.2-5,2
				c-3.3,1.4-6.5,3.1-9.5,5c-3,1.9-5.9,4.1-8.6,6.5c-2.7,2.4-5.1,5.1-7.3,7.9c-4.5,5.6-7.9,12.1-10.5,18.8
				c-5,13.5-6.4,28.3-5.3,42.7c1.1,14.5,4.7,28.7,10.1,42.2c5.4,13.5,12.8,26.2,21.8,37.5c9,11.3,19.8,21.3,31.9,29.1l0,0
				c1.2,0.8,1.6,2.4,0.8,3.7s-2.4,1.6-3.7,0.8l0,0c-12.6-8.3-23.6-18.7-32.8-30.5c-9.2-11.8-16.6-25-22.1-38.9
				c-5.4-13.9-9-28.6-10-43.5c-1-14.9,0.6-30.2,6-44.3c2.8-7,6.4-13.7,11.2-19.6c2.4-2.9,5-5.7,7.8-8.2c2.8-2.5,5.9-4.7,9.1-6.7
				c3.2-2,6.6-3.7,10-5.2c1.7-0.8,3.5-1.4,5.3-2c1.8-0.5,3.6-1,5.4-1.6l2.7-0.8l2.7-0.6c1.8-0.4,3.7-0.8,5.5-1.1
				c3.7-0.4,7.4-1,11.2-1c3.7-0.3,7.5,0,11.2,0.1c1.9,0.2,3.7,0.4,5.6,0.6c1.9,0.2,3.7,0.5,5.5,0.8c3.7,0.6,7.3,1.5,10.9,2.4
				c3.6,1.1,7.1,2.1,10.6,3.4c3.5,1.2,6.9,2.7,10.3,4.1l5,2.4c1.7,0.8,3.3,1.7,4.9,2.5c6.5,3.5,12.9,7.3,19,11.5
				c0.4,0.3,0.5,0.8,0.2,1.2C476.3,729.2,475.8,729.3,475.4,729z"/>
		</g>
		<g>
			<path class="st2" d="M446.7,789.4c4.5,4.3,8.6,8.7,12.6,13.3c4,4.6,7.9,9.3,11.7,14c7.6,9.6,14.5,19.6,21,29.9
				c6.4,10.4,12.3,21.1,17.5,32.2c5.1,11.1,9.6,22.5,13.2,34.2c3.6,11.7,6.4,23.7,8.1,35.9l0.3,2.3c0.1,0.8,0.2,1.5,0.3,2.4
				c0.2,1.7,0.2,3.4,0,5.1c-0.3,3.4-1.2,6.8-2.8,9.8c-3,6.1-8.4,11.1-14.9,13.5c-3.2,1.2-6.7,1.8-10,1.8l-9.1,0l-18.2,0.1l-36.3,0.2
				c-12.1,0.1-24.2,0-36.3,0.1l-36.3,0l-18.2-0.1l-9.1,0l-1.2,0c-0.5,0-1,0-1.4-0.1c-1-0.1-1.9-0.3-2.8-0.5
				c-1.9-0.5-3.6-1.4-5.2-2.5c-3.1-2.2-5.4-5.6-6.4-9.3c-0.5-1.9-0.6-3.8-0.4-5.7c0.1-1,0.3-1.9,0.5-2.8c0.1-0.5,0.2-0.8,0.4-1.2
				l0.4-1.1c2-5.9,4.4-11.7,7.4-17.2c5.9-11,13.8-21.1,23.5-29c4.9-4,10.1-7.4,15.7-10.3c5.6-2.8,11.4-5.1,17.4-6.8
				c12-3.4,24.4-4.6,36.7-4.3c12.3,0.4,24.4,2,36.3,4.7c0.7,0.2,1.1,0.8,0.9,1.5c-0.1,0.6-0.8,1.1-1.4,0.9
				c-11.9-2-23.9-3.2-35.9-3.1c-11.9,0.2-23.9,1.6-35.2,5.2c-11.3,3.5-21.8,9.1-30.7,16.7c-8.9,7.5-16.2,17-21.5,27.4
				c-2.7,5.2-4.9,10.7-6.7,16.3l-0.3,1.1c-0.1,0.3-0.2,0.7-0.3,1c-0.2,0.5-0.2,1.1-0.3,1.6c-0.1,1.1,0,2.2,0.3,3.3
				c0.6,2.1,1.9,4.1,3.7,5.3c0.9,0.6,1.9,1.1,3,1.4c0.5,0.1,1.1,0.2,1.6,0.3c0.3,0,0.6,0,0.8,0l1.1,0l9.1,0l18.2-0.1l36.3,0
				c12.1,0,24.2,0,36.3,0.1l36.3,0.2l18.2,0.1l9.1,0c2.7,0,5.3-0.4,7.7-1.3c4.9-1.8,9.1-5.6,11.5-10.3c1.2-2.3,1.9-4.9,2.2-7.5
				c0.1-1.3,0.1-2.6,0-4c0-0.6-0.2-1.4-0.2-2.2l-0.3-2.2c-1.5-11.8-4.1-23.6-7.5-35.1c-3.4-11.5-7.6-22.8-12.5-33.7
				c-4.9-11-10.4-21.7-16.6-32c-6.1-10.3-12.9-20.3-20.1-30c-3.6-4.8-7.3-9.6-11.2-14.2c-3.9-4.6-7.9-9.2-12-13.4l0,0
				c-0.5-0.5-0.5-1.4,0-1.9C445.3,788.9,446.1,788.9,446.7,789.4z"/>
		</g>
	</g>
	<path class="st6" d="M312.9,625.3c0,0,25.7,43.4,152,22.5S701.7,542,701.7,542s-33.9,43.9,30.8,136.8
		c30.1,43.2,50.5,112.2,59.9,154.3c9.3,42.1-2.7,82.9-10.2,97.5c-7.5,14.6-23.5,35-23.5,35s-4,16.8-19.1,19.1
		c-15.1,2.2-150.3,1.8-162.7,4c-12.4,2.2-23.1-14.2-23.1-14.2s-41.1,21.1-60.3,17.3c-31.6-6.2-33.6-52.4-33.6-52.4s-90.8-21-89.8-21
		s-12.3-72.5-22.6-103.1c-10.3-30.6-29-63.3-35.9-82.5C295.3,687.7,312.9,625.3,312.9,625.3z"/>
	<path class="st6" d="M230.9,454.5l14-3.8c0,0-20.5,31.8-0.4,66c0,0,5.8,28.8,20,54.6l433.4-14.7c0.4-2.2,0.7-3.5,0.7-3.5
		s3.5-8.6,10.9-23.9c7.4-15.4,30.3-56.2,23.3-92.1c-6.9-35.9-11.9-52.9-18.2-66.5s-14.8-27.9-14.8-27.9s17.1-57.6,7.2-91.7
		c-9.9-34.1-17.4-51.2-30.3-53.1c-12.9-1.9-34.9,14.8-41.7,21.2c-6.8,6.4-20.5,16.7-27.7,24.3s-18.2,12.1-18.2,12.1
		s-62.2,3.8-91,1.9c-28.8-1.9-47.8-5.7-47.8-5.7s-46.7-31.5-63.7-45.5c-17-14-20.9-17.8-29.2-14s-17.1,21.6-16.3,38.3
		s8,47.4,9.5,49.3c1.5,1.9,2.3,5.3,2.3,5.3s-26.5,27.7-40.2,52.7c-13.6,25-27.3,46.6-40.2,56.1s-17.8,13.6-16.3,13.6
		c1.5,0,13.3,0.8,16.7-1.5C272.9,406,236.9,439.3,230.9,454.5z"/>
	<path class="st3" d="M632.7,515c-65.7,6.3-80.5-11.1-90.4-17.1c-10-6-56-36.4-73.6-45.8c-17.6-9.4-43.5-27.2-106.9-22.9l-0.6,0.4
		c-2.1,0.4-4.3,0.9-6.3,1.6c-15.5,5.3-16.8,16-31.3,23.9c-14.4,8-24.4,12.2-36.1,12.9c-0.1,0-0.2,0-0.3,0c-9.1-1-18.7-2.8-23.5-6.3
		c-10.1-7.2-15.8-16.7-16.2-26.8c0-0.7,0-1.3,0-2c0.3-10.8-18.1,24.1-17.3,22.7c0.8-1.3,12.8-4.5,12.8-4.5s-15.6,35.8,1.4,66
		c0,0,13.1,54,34.7,75.1s33.8,33,33.8,33l-0.9,4.5l-2.3,7.1l-1.5,11.1l-0.4,1.8c0,0,0.1,0,0.1,0.1l-2.3,16.9c0,0,4.2,21.1,10.6,41.2
		c12,50.4,40.9,71.1,40.9,71.1s9.1,28.4,31.1,54.2c29.4,34.5,59.9,23.1,59.9,23.1l3,9.5c42.8-3.8,59.9-18.6,63.7-40.2
		c3.8-21.6-6.3-21.9,2.7-60.7c6.1-26.6,25.9-57.4,40.6-77.6c13.1-14.9,27.3-28,39.5-35.3c22.6-13.6,66.8-38.6,74.5-45.9
		s19.6-20.3,20-28.9c0.2-4.2,1.5-13.4,2.9-21.7c1.1-1,1.8-1.6,2.1-2c8.1-8.1,20.2-40.4,25-52.3c4.8-11.9,7.4-24.7,7.4-24.7
		S698.4,508.7,632.7,515z"/>
	<path class="st6" d="M767.9,835.3c0,0,92.4,16.1,141.7-102.6c0,0,47.2,182-163.9,236L767.9,835.3z"/>
	<path class="st3" d="M909.7,732.8c0,0,14.2,138.8-126.8,189.9L763,963.1C763,963.1,940.6,924.6,909.7,732.8z"/>
	<path class="st4" d="M909.7,732.8c0,0,45.7,187.3-165.9,232l16.7-19.7C760.5,945.1,921.6,921.6,909.7,732.8z"/>
	<g>
		<path class="st2" d="M790.5,833.4c3.3,0.1,6.8-0.3,10.2-0.7c3.4-0.5,6.8-1.2,10.2-2.1c6.7-1.7,13.2-4.2,19.5-7.1
			c12.5-6,23.9-14.2,33.9-23.9c9.9-9.7,18.5-20.8,25.7-32.7c7.3-11.9,13.3-24.5,18.3-37.6l0,0l1.6-4.1l1.1,4.2
			c1.6,6.4,2.7,12.9,3.5,19.4c0.8,6.5,1.3,13,1.6,19.6c0.5,13.1-0.1,26.2-2,39.2c-1.9,13-4.9,25.8-9.4,38.2
			c-4.5,12.4-10.3,24.3-17.4,35.4c-14.2,22.3-33.6,41-55.7,55.4C809.5,951,785,961.4,759.9,969c-1.7,0.5-3.4-0.4-4-2.1
			s0.4-3.4,2.1-4c0,0,0,0,0,0c24.8-7.1,48.8-17.1,70.5-30.9c21.7-13.8,40.7-31.8,54.8-53.3c7-10.7,12.8-22.3,17.3-34.3
			c4.5-12,7.7-24.6,9.7-37.3c2-12.7,2.7-25.7,2.4-38.6c-0.2-6.5-0.6-12.9-1.4-19.3c-0.7-6.4-1.7-12.8-3.2-19l2.6,0.1l0,0
			c-5.1,13.2-11.1,26-18.5,38c-7.3,12.1-16,23.4-26.2,33.3c-10.1,9.9-21.8,18.3-34.6,24.4c-6.4,3.1-13.1,5.5-20,7.3
			c-3.4,0.9-6.9,1.6-10.5,2.1c-3.5,0.5-7,0.9-10.7,0.8c-0.8,0-1.4-0.7-1.4-1.4C789,833.9,789.7,833.3,790.5,833.4L790.5,833.4
			L790.5,833.4z"/>
	</g>
	<path class="st8" d="M909.5,729.7c0,0,17.2,138.4-124.9,193"/>
	<ellipse class="st2" cx="577" cy="989.6" rx="299.4" ry="9"/>
	<path class="st7" d="M363.7,816.4c0,0,3.4,37,31.8,55.7c28.4,18.8,22.2,76.2,22.2,76.2l39.8-28.1l-5.1-37.2
		C452.5,882.9,393.9,875.5,363.7,816.4z"/>
	<path class="st7" d="M758.6,732.9l-55-106.9c0,0-0.1,0-0.3,0c-3.5-7.1-7.3-15.4-8.7-20.2c-2.7-9.3-5.7-29.6-6.3-32.9
		c-0.7-3.3-15,41.9-61.9,65.2c0,0,7.7,12.9,26.5,16c38.6,6.4,73.1,27.9,94.3,60.8C754.2,725.6,758.6,732.9,758.6,732.9z"/>
	<path class="st3" d="M457.6,920.1c0,0-42.1-36.7-89.6-20.8c0,0,0.3,55.2,11.4,66.8c11.1,11.7,15.4,27.3,38.4,23
		c23-4.3,29.6-15.6,33.6-27.9c4-12.2,6.3-29.9,6.3-29.9"/>
	<path class="st7" d="M680.1,801.4c0,0,46.6,55,59.9,91.7s18.6,72.8,14.8,81.1s-12.5,13.6-27.7,13.3c-15.2-0.4-152.8,1.1-159.6,0.8
		c-6.8-0.4-14.8-11.4-11.4-19.7c3.4-8.3,5.3-4.5,5.3-4.5s-3.8,10.2,19,10.2s99.3,0,127,0S759.7,945.1,680.1,801.4z"/>
	<path class="st4" d="M456.5,938.4l0.2-19c-3.7-3-20.3-15.8-43-21.4c2.5,24.8,5.8,52.4,1.7,64.3c-7.6,22.4-33.1,6-37.2,5.7
		c0.3,0.2,18,17.5,18.2,17.7c4.1,1.4,13.1,3.9,22.1,3.3c6.1-1.2,11.1-2.9,15.1-5.1c0.1-0.1,0.2-0.1,0.3-0.2
		c9.2-7.4,15.9-21.5,19.5-30.4C454.8,948,455.9,942.6,456.5,938.4z"/>
	<path class="st3" d="M567.6,945.2c0,0-46.3-65.1-110.3-36.1c0,0,3.1,35,2.3,55.4s21.6,32.7,48.9,31.6c27.3-1.1,45.8-17.3,45.8-17.3
		S556.8,965.9,567.6,945.2z"/>
	<path class="st4" d="M459.5,956.8c0,0,8.7,23.9,48.1,17.8s37.5-51.9,37.5-51.9l22.5,20.8c0,0-1.2,35.4-30.4,44.8
		c-29.2,9.5-56.5,9.9-66,1.1S459.5,956.8,459.5,956.8z"/>
	<path class="st7" d="M550.3,815.8c0,0,1.4,50.5-2.8,88.3c-0.7,6.3,0.9,12.6,4.6,17.7l15.5,21.7c0,0,16.8-24.7,44.1-35.5
		c0,0-27.3-18.2-42.7-46.6S550.3,815.8,550.3,815.8z"/>
	<path class="st4" d="M639.4,589.3c0,0-20.4,27.5-15.1,46.6c0,0,33.7-18.8,44.1-27.3s22.8-21.9,23.1-29.9c0.2-8,6.7-30.4,6.7-30.4
		l-48.6,16.2"/>
	<path class="st7" d="M777.2,776c0,0,23.9,88.7-37.5,121.7l17.1,68.8C756.7,966.5,824.4,912.5,777.2,776z"/>
	<g>
		<path class="st2" d="M643.1,940.2c-4.9,1.7-9.6,4.2-13.8,7.2c-4.2,3-8.1,6.5-11.1,10.6c-3.1,4.1-5.4,8.6-6.8,13.5
			c-1.4,4.8-1.7,9.9-1.5,14.9c0.1,1.5-1.1,2.8-2.6,2.9c-1.5,0.1-2.8-1.1-2.9-2.6c0-0.1,0-0.1,0-0.2c0.1-5.5,0.9-11.1,2.9-16.3
			c1.9-5.2,4.8-10,8.4-14.2c3.6-4.1,7.9-7.5,12.5-10.3c4.6-2.8,9.5-5,14.7-6.4c0.3-0.1,0.5,0.1,0.6,0.3
			C643.5,939.9,643.4,940.1,643.1,940.2L643.1,940.2z"/>
	</g>
	<g>
		<path class="st2" d="M598.9,938.5c-3.7,2.5-6.9,5.9-9.6,9.5c-2.7,3.7-4.8,7.7-6.4,11.9c-1.6,4.2-2.7,8.6-3.3,13
			c-0.5,4.4-0.6,9-0.4,13.5c0.1,1.5-1.1,2.8-2.6,2.9s-2.8-1.1-2.9-2.6c0-0.1,0-0.2,0-0.2l0,0c0.2-4.8,0.6-9.5,1.6-14.2
			c1-4.7,2.5-9.3,4.5-13.6c2-4.3,4.6-8.3,7.7-11.9c3.1-3.6,6.6-6.8,10.8-9.1c0.2-0.1,0.5-0.1,0.7,0.2
			C599.2,938,599.1,938.3,598.9,938.5L598.9,938.5z"/>
	</g>
	<path class="st3" d="M706.1,735.6c0,0-41.5-29.6-93.8-20.5c-52.3,9.1-74.5,79-39.2,149.6c0,0-55.3-79.6-4.5-133.1
		C622.5,674.7,706.1,735.6,706.1,735.6z"/>
	<g>
		<path class="st2" d="M441.4,817.9c1.6,5.3,3,10.7,4.4,16.1c1.3,5.4,2.6,10.8,3.8,16.2c2.3,10.9,4.4,21.8,6.2,32.8
			c0.8,5.5,1.7,11,2.4,16.5c0.3,2.8,0.7,5.5,1,8.3l0.9,8.3c0.3,2.8,0.5,5.5,0.8,8.3l0.7,8.3l0.5,8.4c0.1,2.8,0.3,5.6,0.4,8.4
			l0.2,8.4l0,2.1l0,1l0.1,0.9l0.1,1.9c0.1,0.6,0.2,1.2,0.3,1.9c0.1,1.2,0.5,2.5,0.8,3.7c0.1,0.6,0.4,1.2,0.6,1.8
			c0.2,0.6,0.4,1.2,0.6,1.8c0.5,1.1,1,2.3,1.6,3.4c0.3,0.5,0.6,1.1,0.9,1.6l1.1,1.5c2.8,4.1,6.8,7.3,11.2,9.7c2.2,1.1,4.6,2.1,7,2.6
			c0.6,0.1,1.2,0.3,1.8,0.4l1.9,0.3l0.9,0.1l1,0.1l2,0.1c10.7,0.7,21.5-0.5,32-3.2c5.2-1.4,10.3-3.3,15.3-5.5c5-2.2,9.7-4.9,14.3-8
			l0,0c0.4-0.3,1-0.2,1.3,0.3c0.3,0.4,0.2,0.9-0.2,1.2c-17.1,14.5-40.1,22.3-63,21.6L492,999l-1.1,0l-1.1-0.1l-2.3-0.3
			c-0.7-0.1-1.5-0.3-2.2-0.4c-3-0.6-5.8-1.7-8.6-3c-1.3-0.7-2.7-1.4-4-2.3c-0.6-0.4-1.3-0.8-1.9-1.3l-1.8-1.5l-0.9-0.7l-0.8-0.8
			l-1.6-1.6l-1.5-1.7l-0.7-0.9c-0.2-0.3-0.4-0.6-0.7-0.9l-1.3-1.9c-0.4-0.6-0.8-1.3-1.1-2c-0.8-1.3-1.3-2.7-1.9-4.1
			c-0.3-0.7-0.5-1.4-0.8-2.2c-0.2-0.7-0.5-1.4-0.7-2.2c-0.3-1.5-0.7-3-0.9-4.5c-0.1-0.8-0.2-1.5-0.3-2.3l-0.1-2.3l0-1.1l0-1l0-2.1
			l0-8.3c0-22-1.8-44.1-4.3-66c-1.3-11-2.9-21.9-4.8-32.8c-1.8-10.9-3.9-21.8-6.4-32.6l0,0c-0.1-0.3,0.1-0.6,0.4-0.7
			C441.1,817.4,441.4,817.6,441.4,817.9z"/>
	</g>
	<path class="st9" d="M567.9,944.3c0,0-48.9-63-108.5-36.1"/>
	<g>
		<path class="st2" d="M451.1,886.4c-1.3-0.1-2.3-0.3-3.4-0.5c-1.1-0.2-2.2-0.4-3.3-0.6c-2.2-0.5-4.3-1-6.4-1.6
			c-4.2-1.2-8.4-2.6-12.5-4.2c-8.1-3.3-15.9-7.4-23.1-12.4c-7.2-4.9-13.9-10.6-19.8-17c-5.9-6.4-11.1-13.4-15.6-20.9l-3.2-5.7
			c-1-1.9-1.9-3.9-2.8-5.8c-0.5-1-0.9-1.9-1.4-2.9l-1.2-3l-1.2-3c-0.4-1-0.8-2-1.1-3c-1.3-4.1-2.8-8.2-3.8-12.4
			c-0.5-2.1-1.1-4.1-1.6-6.3l-1.3-6.3l-0.6-3.2l-0.4-3.2l-0.9-6.4c-0.2-1.1-0.2-2.1-0.3-3.2l-0.3-3.2l-0.5-6.4l-0.4-12.8l0.3-12.8
			c0-0.4,0.4-0.8,0.8-0.8c0.4,0,0.8,0.4,0.8,0.8l0,0l0.1,12.7l0.8,12.7l0.7,6.3l0.4,3.1c0.1,1,0.2,2.1,0.4,3.1l1.1,6.2l0.5,3.1
			l0.7,3.1l1.4,6.2c0.5,2,1.2,4,1.7,6.1c1.1,4.1,2.6,8,4,11.9c0.3,1,0.8,1.9,1.2,2.9l1.3,2.9l1.3,2.9c0.4,0.9,0.9,1.9,1.4,2.8
			c1,1.8,1.9,3.7,2.9,5.6l3.2,5.4c4.5,7,9.7,13.6,15.5,19.5c5.8,5.9,12.3,11.1,19.3,15.6c7,4.4,14.4,8.1,22.2,11
			c3.9,1.4,7.8,2.6,11.8,3.6c2,0.5,4,0.9,6,1.3c1,0.2,2,0.4,3,0.5c1,0.1,2,0.3,2.9,0.3l0.1,0c2.2,0.2,3.8,2.1,3.6,4.3
			c-0.2,2.2-2.1,3.8-4.3,3.6C451.2,886.4,451.2,886.4,451.1,886.4z"/>
	</g>
	<path class="st9" d="M455.2,917.7c0,0-40.6-34.3-87.1-17.9"/>
	<g>
		<path class="st2" d="M705.2,735.9c-6.1-4.1-12.4-7.8-18.9-11.2c-1.6-0.8-3.2-1.7-4.9-2.5l-5-2.3c-3.4-1.4-6.7-2.8-10.2-4
			c-3.4-1.3-7-2.2-10.5-3.2c-3.6-0.8-7.1-1.7-10.7-2.2c-1.8-0.3-3.6-0.6-5.4-0.8c-1.8-0.2-3.6-0.4-5.4-0.5c-3.6-0.1-7.3-0.3-10.9,0
			c-3.6,0-7.2,0.6-10.8,1.1c-1.8,0.3-3.6,0.7-5.3,1.1l-2.7,0.6l-2.6,0.8c-1.7,0.5-3.5,1-5.2,1.6c-1.7,0.6-3.4,1.2-5,2
			c-3.3,1.4-6.5,3.1-9.5,5c-3,1.9-5.9,4.1-8.6,6.5c-2.7,2.4-5.1,5.1-7.3,7.9c-4.5,5.6-7.9,12.1-10.5,18.8c-5,13.5-6.4,28.3-5.3,42.7
			c1.1,14.5,4.7,28.7,10.1,42.2c5.4,13.5,12.8,26.2,21.8,37.5c9,11.3,19.8,21.3,31.9,29.1l0,0c1.2,0.8,1.6,2.4,0.8,3.7
			c-0.8,1.2-2.4,1.6-3.7,0.8l0,0c-12.6-8.3-23.6-18.7-32.8-30.5c-9.2-11.8-16.6-25-22.1-38.9c-5.4-13.9-9-28.6-10-43.5
			c-1-14.9,0.6-30.2,6-44.3c2.8-7,6.4-13.7,11.2-19.6c2.4-2.9,5-5.7,7.8-8.2c2.8-2.5,5.9-4.7,9.1-6.7c3.2-2,6.6-3.7,10-5.2
			c1.7-0.8,3.5-1.4,5.3-2c1.8-0.5,3.6-1,5.4-1.6l2.7-0.8l2.7-0.6c1.8-0.4,3.7-0.8,5.5-1.1c3.7-0.4,7.4-1,11.2-1
			c3.7-0.3,7.5,0,11.2,0.1c1.9,0.2,3.7,0.4,5.6,0.6c1.9,0.2,3.7,0.5,5.5,0.8c3.7,0.6,7.3,1.5,10.9,2.4c3.6,1.1,7.1,2.1,10.6,3.4
			c3.5,1.2,6.9,2.7,10.3,4.1l5,2.4c1.7,0.8,3.3,1.7,4.9,2.5c6.5,3.5,12.9,7.3,19,11.5c0.4,0.3,0.5,0.8,0.2,1.2
			C706.1,736,705.5,736.1,705.2,735.9z"/>
	</g>
	<g>
		<path class="st2" d="M676.4,796.3c4.5,4.3,8.6,8.7,12.6,13.3c4,4.6,7.9,9.3,11.7,14c7.6,9.6,14.5,19.6,21,29.9
			c6.4,10.4,12.3,21.1,17.5,32.2c5.1,11.1,9.6,22.5,13.2,34.2c3.6,11.7,6.4,23.7,8.1,35.9l0.3,2.3c0.1,0.8,0.2,1.5,0.3,2.4
			c0.2,1.7,0.2,3.4,0,5.1c-0.3,3.4-1.2,6.8-2.8,9.8c-3,6.1-8.4,11.1-14.9,13.5c-3.2,1.2-6.7,1.8-10,1.8l-9.1,0l-18.2,0.1l-36.3,0.2
			c-12.1,0.1-24.2,0-36.3,0.1l-36.3,0l-18.2-0.1l-9.1,0l-1.2,0c-0.5,0-1,0-1.4-0.1c-1-0.1-1.9-0.3-2.8-0.5c-1.9-0.5-3.6-1.4-5.2-2.5
			c-3.1-2.2-5.4-5.6-6.4-9.3c-0.5-1.9-0.6-3.8-0.4-5.7c0.1-1,0.3-1.9,0.5-2.8c0.1-0.5,0.2-0.8,0.4-1.2l0.4-1.1
			c2-5.9,4.4-11.7,7.4-17.2c5.9-11,13.8-21.1,23.5-29c4.9-4,10.1-7.4,15.7-10.3c5.6-2.8,11.4-5.1,17.4-6.8c12-3.4,24.4-4.6,36.7-4.3
			c12.3,0.4,24.4,2,36.3,4.7c0.7,0.2,1.1,0.8,0.9,1.5c-0.1,0.6-0.8,1.1-1.4,0.9c-11.9-2-23.9-3.2-35.9-3.1
			c-11.9,0.2-23.9,1.6-35.2,5.2c-11.3,3.5-21.8,9.1-30.7,16.7c-8.9,7.5-16.2,17-21.5,27.4c-2.7,5.2-4.9,10.7-6.7,16.3l-0.3,1.1
			c-0.1,0.3-0.2,0.7-0.3,1c-0.2,0.5-0.2,1.1-0.3,1.6c-0.1,1.1,0,2.2,0.3,3.3c0.6,2.1,1.9,4.1,3.7,5.3c0.9,0.6,1.9,1.1,3,1.4
			c0.5,0.1,1.1,0.2,1.6,0.3c0.3,0,0.6,0,0.8,0l1.1,0l9.1,0l18.2-0.1l36.3,0c12.1,0,24.2,0,36.3,0.1l36.3,0.2l18.2,0.1l9.1,0
			c2.7,0,5.3-0.4,7.7-1.3c4.9-1.8,9.1-5.6,11.5-10.3c1.2-2.3,1.9-4.9,2.2-7.5c0.1-1.3,0.1-2.6,0-4c0-0.6-0.2-1.4-0.2-2.2l-0.3-2.2
			c-1.5-11.8-4.1-23.6-7.5-35.1c-3.4-11.5-7.6-22.8-12.5-33.7c-4.9-11-10.4-21.7-16.6-32c-6.1-10.3-12.9-20.3-20.1-30
			c-3.6-4.8-7.3-9.6-11.2-14.2c-3.9-4.6-7.9-9.2-12-13.4l0,0c-0.5-0.5-0.5-1.4,0-1.9C675,795.8,675.9,795.8,676.4,796.3z"/>
	</g>
	<path class="st9" d="M450.9,865.5c0,0,73.8,1.4,63.9-57.5c-10.7-63.1,56.3-134.9,56.3-134.9c41.2-40.3,96.2-48.3,120.8-91"/>
	<path class="st9" d="M307.1,671.1c0,0,12.4,78.3,48.9,106.8c6.3,4.2,24.3,84.4,91.8,80.2"/>
	<g>
		<path class="st2" d="M577.8,892c0.3,3.9,0.5,7.8,0.5,11.7c0.1,3.9,0,7.8-0.2,11.7c-0.2,3.9-0.5,7.8-0.9,11.7
			c-0.4,3.9-1.1,7.8-1.8,11.7c-0.4,2.1-2.4,3.5-4.5,3.1c-2.1-0.4-3.5-2.4-3.1-4.5c0-0.2,0.1-0.3,0.1-0.5l0-0.1
			c1.2-3.6,2.3-7.2,3.2-10.9c0.9-3.7,1.7-7.4,2.4-11.2c0.7-3.8,1.3-7.5,1.7-11.4c0.5-3.8,0.8-7.6,1-11.5l0,0c0-0.4,0.4-0.8,0.8-0.8
			C577.4,891.3,577.8,891.6,577.8,892z"/>
	</g>
	<path class="st10" d="M627,326.3c20.1,16.3,37.2,24.6,49.7,12.5c12.5-12.1,20.9-24.3,19.7-53.5c-1.1-29.2-6.1-59.2-12.9-64.1
		s-15.2-7.2-26.5,1.9c-11.4,9.1-30.7,32.2-39,39s-14.8,19-11.4,30C610,303.2,627,326.3,627,326.3z"/>
	<path class="st11" d="M662.9,234.6c0,0-6.6,1.7-8.3,7.2c-1.7,5.5-0.4,12.9-5.7,15.2s-17.8,3.4-17.8,12.1s12.1,13.3,25.8,4
		c13.6-9.3,15.5-21.8,15.5-21.8"/>
	<path class="st12" d="M645.2,271.4c0,0,0-8.3,9.3-9.5c9.3-1.1,1.9-22.2,6.4-25.6s12.9-6.3,17.8,0.8c4.9,7,5.5,30.5,5.3,34.9
		c-0.2,4.4,0.8,19.9-4.7,33.2c-5.5,13.3-9.3,16.7-13.5,18c-4.2,1.3-9.9,1.5-12.7,0.6c-2.8-0.9-4.9-3-4.9-3s10.4-5.3,13.3-10
		c2.8-4.7,4.2-8.9,4.2-8.9s-8.5,3.4-14,4.2c0,0-11.8-7.2-19.1-7c0,0,16.9-7.2,27.3-6.4c0,0-14.6-5.5-25.6-4.7c0,0,19-8.3,24.5-15.2
		C658.7,272.5,653,273.8,645.2,271.4z"/>
	<path class="st10" d="M399.2,256.6c0,0-26.3-24.1-34.5-33.4s-12.5-9.9-12.5-9.9s-5.3,10.2-3.8,20.5c1.5,10.2,1.5,26.5,5.7,34.1
		s5.7,11.8,5.7,11.8S394.3,257.7,399.2,256.6z"/>
	<path class="st12" d="M370.4,270.6c0,0-0.2-10.4,7-15c0,0-12.7-4.5-19-14.6c0,0,12.3,5.7,17.8,6.3c0,0-10.6-7.6-14.2-16.3
		s-4.7-13.6-4.7-13.6l-3.6-3.6c0,0-4.2,2.5-4.7,6.6c-0.6,4.2,1.1,30.3,3.8,38.1c2.7,7.8,7,21.2,7,21.2l11.9-8.7"/>
	<path class="st3" d="M460.4,302.3c-10.6,1.9-22,7.8-26.9,16.9s-1.9,20.1,13.8,23.7c15.7,3.6,33-3.4,38.5-9.7
		c5.5-6.3,9.3-12.5,6.3-20.5C489,304.7,475.6,299.6,460.4,302.3z"/>
	<path class="st3" d="M380.6,303.6c-7.6,0.3-15.7,9.5-19.1,17.8c-3.4,8.3-3.2,21.2,5.9,21.8c9.1,0.6,18.4-8.3,22-20.7
		C392.9,310.2,389,303.2,380.6,303.6z"/>
	<path class="st4" d="M439.4,678c36.6-4.9,102.9-56.2,102.9-56.2s-106.9,65.4-210.4-14.2c0,0,8.2,18.3,8.5,18.8
		c0.3,0.4-51.2-23.3-81.3-65.4c0,0,29,50,53.7,64.3l-4,24.6C308.9,649.9,337.9,696.3,439.4,678z"/>
	<path class="st4" d="M569,578.6c0,0-55.2,47.2-139.9,52.9C429.1,631.5,520.7,653.7,569,578.6z"/>
	<path class="st4" d="M716.9,508.7c0,0-63.1,24.5-114.3,66.5c0,0,30.7-13.6,47.8-16.5c0,0-39.8,21.1-74.5,77.4
		c0,0,91.4-51.7,122.7-83L716.9,508.7z"/>
	<path class="st3" d="M585,255.4c0,0-28.8,12.5-95.9,9.5s-113.7-7.6-163,58.4c0,0,12.9-42.5,71.3-63.7S515.2,271.7,585,255.4z"/>
	<g>
		<path class="st2" d="M657.5,455.7c-3-0.5-5.8-1.4-8.6-2.4c-2.8-1-5.5-2.2-8.1-3.5c-5.2-2.7-10.2-5.9-14.6-9.8
			c-2.2-1.9-4.3-4-6.3-6.1c-2-2.1-3.8-4.5-5.5-6.8c-3.3-4.8-6.1-9.9-8.4-15.2c2.5,5.2,5.5,10.2,9,14.8c1.8,2.3,3.6,4.5,5.7,6.5
			c2,2.1,4.1,4,6.4,5.8c4.5,3.6,9.4,6.6,14.6,9c2.6,1.2,5.3,2.2,8,3.1c2.7,0.8,5.5,1.6,8.2,1.9l0.1,0c0.8,0.1,1.3,0.8,1.2,1.6
			C659,455.2,658.3,455.8,657.5,455.7C657.5,455.7,657.5,455.7,657.5,455.7z"/>
	</g>
	<g>
		<path class="st2" d="M643.4,333.2c2.7,2,5.4,3.8,8.4,5.2c2.9,1.3,6,2.2,9.2,2.4c3.1,0.2,6.2-0.3,9.2-1.4c2.9-1.1,5.7-2.9,8.2-5
			c5-4.3,8.8-10.1,11.6-16.3c2.8-6.2,4.7-12.9,5.4-19.6c0.1-0.8,0.2-1.7,0.2-2.5c0-0.8,0.1-1.7,0.1-2.6c0-1.8,0-3.5,0-5.3
			c0-3.5-0.2-7-0.3-10.6c-0.3-7-0.9-14.1-1.8-21c-1-6.9-2.3-13.9-4.4-20.5c-1-3.3-2.3-6.5-3.9-9.4c-0.8-1.5-1.7-2.8-2.7-4.1
			c-1-1.2-2.2-2.3-3.5-3.1c-1.3-0.8-2.7-1.2-4.2-1.4c-1.5-0.2-3.1,0-4.6,0.3c-1.6,0.3-3.1,1-4.6,1.7c-1.5,0.8-3,1.6-4.4,2.5
			c-5.7,3.8-10.8,8.6-15.8,13.6c-4.9,5-9.6,10.3-14.5,15.5c-2.4,2.6-4.9,5.2-7.5,7.8c-0.6,0.6-1.3,1.3-2,1.9
			c-0.6,0.6-1.3,1.2-1.8,1.8c-1.2,1.2-2.3,2.5-3.4,3.8c-2.1,2.6-3.9,5.5-5.1,8.5c-1.2,3-1.9,6.2-2,9.5c-0.1,6.5,2.2,12.9,5.6,18.7
			c3.4,5.8,8,11.1,12.9,16C632.5,324.4,637.8,328.9,643.4,333.2z M639.5,338.2c-5.6-4.5-11.1-9.2-16.1-14.5
			c-5-5.2-9.8-10.9-13.4-17.4c-1.8-3.2-3.4-6.7-4.5-10.3c-1.1-3.6-1.7-7.5-1.5-11.4c0.1-3.9,1.1-7.7,2.6-11.2c1.5-3.5,3.6-6.7,6-9.6
			c1.2-1.4,2.5-2.8,3.8-4.1c0.7-0.7,1.4-1.3,2-1.9c0.6-0.6,1.3-1.1,1.9-1.8c2.5-2.4,5-4.9,7.4-7.5c4.9-5.1,9.7-10.4,14.7-15.4
			c5.1-5.1,10.3-10,16.5-14.1c1.5-1,3.2-1.9,4.9-2.8c1.7-0.8,3.5-1.5,5.4-1.9c1.9-0.4,3.9-0.7,6-0.4c2,0.3,4.1,0.9,5.8,2
			c1.7,1.1,3.2,2.5,4.5,3.9c1.2,1.5,2.3,3.1,3.2,4.7c1.8,3.3,3.2,6.7,4.3,10.2c2.2,6.9,3.6,14,4.6,21.1c1,7.1,1.7,14.2,2.2,21.4
			c0.2,3.6,0.4,7.1,0.5,10.7c0.1,1.8,0.1,3.6,0.1,5.4c0,0.9,0,1.8,0,2.7c0,0.9-0.1,1.9-0.1,2.8c-0.6,7.4-2.5,14.6-5.4,21.4
			c-3,6.7-7,13.2-12.7,18.3c-2.8,2.6-6.1,4.8-9.8,6.2c-3.7,1.5-7.7,2.2-11.7,2c-4-0.2-7.8-1.2-11.4-2.8
			C645.7,342.5,642.5,340.5,639.5,338.2z"/>
	</g>
	<path class="st13" d="M637.2,310.7c6.7-3.5,17.9-1.4,17.9-1.4c-9.1-9.1-22.9-10.6-22.9-10.6c9.5-6,27.4-6.3,27.4-6.3
		c-9.1-4.9-26.4-4.6-26.4-4.6c15.5-5.3,25.7-15.5,25.7-15.5c-6.7,2.1-14.8-0.7-14.8-0.7"/>
	<path class="st13" d="M662.3,235.4c0,0,10.6-7.7,16.9,1.6c6.3,9.2,9.3,56.7-3.7,77c-12.2,19.2-26.6,6.9-26.6,6.9s13.7-6,17.2-19.3
		c0,0-8.1,3.5-15.5,4.2"/>
	<g>
		<path class="st2" d="M691.5,361.2c1.3-2.8,2.5-5.8,3.5-8.8c1.1-3,2.1-6,3-9c1.8-6,3.4-12.2,4.7-18.3c2.5-12.4,3.9-24.9,3.9-37.5
			c0.1-3.1-0.1-6.3-0.2-9.4l-0.3-4.7c-0.1-1.6-0.3-3.1-0.4-4.7c-0.6-6.2-1.7-12.4-3-18.5c-2.9-12.2-6.8-24.1-12.5-35.2l-2.1-4.2
			c-0.4-0.7-0.7-1.5-1.1-2l-0.5-0.9c-0.2-0.3-0.4-0.5-0.6-0.8c-1.6-2.2-3.7-3.8-6.1-4.8c-2.4-0.9-5.2-1.2-8-0.8
			c-2.8,0.3-5.7,1.1-8.5,2.1c-5.6,2.1-10.9,5.3-15.9,8.9c-2.5,1.8-4.9,3.8-7.2,5.8c-2.3,2.1-4.5,4.2-6.8,6.5
			c-4.6,4.5-9.3,8.9-14.2,13c-4.9,4.1-10.1,8-15.5,11.5c-10.8,7-22.8,12.4-35.4,15l-0.3-1.2c12.1-3.6,23.4-9.5,33.6-16.8
			c5.1-3.6,10-7.6,14.6-11.9c4.7-4.2,9.2-8.6,13.5-13.2c2.2-2.3,4.4-4.7,6.8-6.9c2.4-2.2,4.9-4.3,7.5-6.3c5.2-4,10.9-7.5,17.1-10
			c3.1-1.2,6.5-2.2,10-2.5c3.5-0.4,7.2-0.1,10.8,1.1c1.8,0.7,3.5,1.6,4.9,2.8c1.5,1.2,2.8,2.5,3.9,4c0.3,0.4,0.6,0.7,0.8,1.1
			l0.7,1.2c0.5,0.8,0.8,1.5,1.2,2.2l2.2,4.3c0.8,1.4,1.4,2.9,2.1,4.4l2,4.4l1.8,4.5c0.6,1.5,1.2,3,1.7,4.6l1.5,4.6
			c0.5,1.5,0.9,3.1,1.4,4.7c0.9,3.1,1.6,6.3,2.3,9.4c1.3,6.4,2.3,12.8,2.8,19.2c0.4,3.2,0.4,6.5,0.6,9.7c0,3.2,0.1,6.5-0.1,9.7
			c-0.2,6.5-0.7,12.9-1.7,19.3c-0.9,6.4-2.2,12.7-3.7,18.9c-1.6,6.2-3.5,12.4-5.7,18.4c-2.2,6-4.8,11.9-7.8,17.6L691.5,361.2z"/>
	</g>
	<g>
		<path class="st2" d="M590.9,256.1c-16.8,2.1-33.6,3.2-50.5,3.8c-16.9,0.5-33.8,0.2-50.7-1l-6.3-0.5l-6.3-0.6
			c-2.1-0.2-4.2-0.4-6.3-0.7l-6.3-0.8l-6.3-0.8c-2.1-0.2-4.1-0.6-6.2-0.7c-2.1-0.2-4.1-0.4-6.2-0.4l-3.1-0.1c-1,0-2.1,0-3.1,0
			c-8.3,0-16.6,0.7-24.7,2.4c-8.1,1.7-16.1,4.1-23.7,7.3c-15.2,6.5-29.2,15.9-41,27.5c-5.9,5.8-11.3,12.1-16.1,18.9
			c-2.4,3.4-4.5,6.8-6.7,10.5l-6.4,10.9c-8.4,14.6-16.8,29.3-27.1,43c-5.1,6.8-10.8,13.3-17,19.3c-6.2,6-13,11.3-20.2,16l-1.3-5.6
			l0,0c1.4,0.3,3,0.6,4.5,0.7c1.5,0.2,3.1,0.3,4.6,0.2c1.5,0,3.1-0.2,4.6-0.4c1.5-0.3,3-0.8,4.3-1.5l1.1,1.6c-1.4,1.1-2.9,2-4.5,2.7
			c-1.6,0.7-3.3,1.2-5,1.6c-1.7,0.4-3.4,0.7-5.1,0.8c-1.8,0.2-3.4,0.3-5.3,0.2l0,0l-8.4-1.1l7.2-4.6c6.9-4.4,13.5-9.5,19.5-15.1
			c6-5.6,11.5-11.9,16.5-18.4c10.1-13.2,18.5-27.7,27.1-42.2l6.5-10.9c2.1-3.6,4.5-7.3,7-10.8c5-7,10.6-13.5,16.8-19.4
			c12.3-11.9,26.9-21.5,42.7-28.1c7.9-3.3,16.2-5.7,24.6-7.3c8.4-1.6,17-2.3,25.5-2.2c1.1,0,2.1,0,3.2,0l3.2,0.2
			c2.1,0.1,4.3,0.3,6.4,0.5c2.1,0.2,4.2,0.5,6.3,0.8l6.2,0.9l6.2,0.9c2.1,0.3,4.2,0.5,6.2,0.7l6.3,0.7l6.3,0.5
			c16.7,1.3,33.5,1.7,50.3,1.4c16.8-0.4,33.6-1.3,50.3-3.3L590.9,256.1z"/>
	</g>
	<g>
		<path class="st2" d="M453.1,254.4c-15.9-8.9-31.3-18.6-46.3-28.9c-7.5-5.1-14.9-10.5-22.1-16.1c-1.8-1.4-3.6-2.8-5.4-4.2l-5.3-4.3
			c-1.8-1.5-3.5-3-5.2-4.5l-1.3-1.1c-0.1-0.1-0.2-0.2-0.3-0.3l-0.2-0.2l-0.4-0.3c-0.6-0.4-1.2-0.7-1.9-0.9c-1.3-0.3-2.8-0.2-4.4,0.4
			c-1.6,0.6-3.1,1.6-4.5,2.9c-2.8,2.6-5.1,6.1-6.9,9.9c-3.5,7.6-4.8,16.3-4.8,25c0,8.7,1.4,17.5,3.6,26.1c2.2,8.6,5.3,17,8.9,25.3
			l-3.3,1.6c-4.4-8.1-8.1-16.5-10.8-25.4c-2.7-8.8-4.7-18-4.9-27.5c-0.4-9.4,0.9-19.1,4.7-28.1c1.9-4.5,4.7-8.8,8.5-12.4
			c2-1.7,4.2-3.3,6.8-4.4c2.6-1.1,5.8-1.5,8.9-0.7c1.5,0.4,3,1,4.3,1.9l0.9,0.7l0.5,0.4l0.3,0.3l1.3,1.1c1.7,1.5,3.4,2.9,5.1,4.4
			l5.2,4.3c1.7,1.4,3.5,2.8,5.3,4.2c7,5.6,14.2,11,21.5,16.4c14.6,10.7,29.4,21.1,44.3,31.3L453.1,254.4z"/>
	</g>
	<g>
		<path class="st2" d="M252.9,466.4c-0.7,2-1.4,4.3-2,6.4c-0.3,1.1-0.5,2.2-0.8,3.3l-0.7,3.4c-0.9,4.5-1.4,9.1-1.8,13.7
			c-0.6,9.2-0.3,18.4,1.1,27.5c1.4,9.1,3.7,18.1,6.9,26.7c3.3,8.6,7.4,16.9,12.3,24.8c9.7,15.8,22.4,29.6,36.4,41.7
			c14,12.2,29.6,22.5,45.9,31.6l-3.2,3.3c-1-1.7-1.9-3.4-2.8-5.1c-0.9-1.7-1.7-3.5-2.4-5.2c-1.5-3.6-2.7-7.2-3.5-11.2l0,0l-2.4-11.7
			l6.7,9.9c1.5,2.2,3.2,4.4,5,6.5c1.8,2.1,3.6,4.2,5.6,6.2c3.9,4,8,7.8,12.4,11.2l1.6,1.3l1.7,1.2c1.1,0.8,2.2,1.7,3.4,2.4
			c2.3,1.5,4.6,3.1,7.1,4.5c4.8,2.9,9.9,5.2,15,7.5l0,0c0.4,0.2,0.6,0.7,0.4,1.1c-0.2,0.4-0.6,0.6-1.1,0.4c-5.3-2-10.6-4.2-15.6-6.9
			c-2.6-1.3-5-2.8-7.4-4.2c-1.2-0.7-2.4-1.6-3.6-2.3l-1.8-1.2l-1.7-1.3c-4.7-3.3-9.1-7-13.3-10.9c-2.1-2-4.1-4-6.1-6.1
			c-1.9-2.2-3.8-4.3-5.6-6.7l4.3-1.8l0,0c0.6,3.4,1.8,6.8,3.2,10.2c0.7,1.7,1.5,3.3,2.3,4.9c0.8,1.6,1.7,3.3,2.6,4.8l4.5,7.6
			l-7.7-4.3c-16.5-9.2-32.3-19.7-46.7-32.1c-14.3-12.4-27.3-26.5-37.3-42.8c-5-8.1-9.3-16.7-12.7-25.6c-3.3-8.9-5.8-18.2-7.2-27.7
			c-1.4-9.4-1.7-19-1.1-28.6c0.4-4.8,0.9-9.5,1.8-14.2l0.7-3.5c0.3-1.2,0.5-2.3,0.8-3.5c0.6-2.3,1.3-4.6,2.2-7
			c0.5-1.2,1.8-1.9,3.1-1.4c1.2,0.5,1.9,1.8,1.4,3.1L252.9,466.4z"/>
	</g>
	<g>
		<path class="st2" d="M284.1,396.4c-5.1,4.2-10,8.8-14.7,13.6c-4.7,4.8-9.2,9.7-13.5,14.7c-4.3,5.1-8.5,10.3-12.4,15.7
			c-2,2.7-3.9,5.4-5.8,8.1c-1.9,2.7-3.6,5.6-5.5,8.3l-2.7-3.6l0,0l14.2-4.7l6.5-2.2l-3.8,5.8c-0.7,1-1.4,2.4-2.1,3.6
			c-0.6,1.3-1.2,2.6-1.8,3.9c-1.1,2.7-2,5.5-2.7,8.3c-1.4,5.6-2.1,11.5-2,17.3c0.1,2.9,0.3,5.8,0.8,8.7c0.2,1.4,0.5,2.9,0.8,4.3
			c0.4,1.4,0.6,2.8,1.1,4.2c1.6,5.6,3.8,11.1,6.6,16.3L243,521c-2.9-5.5-5.3-11.2-7-17.2c-0.5-1.5-0.8-3-1.1-4.5
			c-0.3-1.5-0.6-3-0.8-4.6c-0.5-3.1-0.7-6.2-0.8-9.3c-0.2-6.2,0.6-12.5,2.1-18.6c0.8-3,1.7-6,2.9-8.9c0.6-1.4,1.2-2.9,2-4.3
			c0.7-1.4,1.4-2.7,2.4-4.2l2.7,3.6l-14.2,4.7h0l-6.8,2.1l4.1-5.7c2-2.7,3.9-5.5,5.9-8.2c2-2.7,4-5.4,6.2-8
			c4.2-5.3,8.6-10.3,13.2-15.3c4.6-4.9,9.3-9.7,14.2-14.3c4.9-4.6,10-9,15.4-13L284.1,396.4z"/>
	</g>
	<g>
		<path class="st2" d="M398.6,260.9l-11.9-12.1c-4-4-7.9-8.1-11.9-12.1c-3.9-4.1-7.9-8.1-11.7-12.3c-1.9-2.1-3.8-4.2-5.7-6.4
			c-0.5-0.5-0.9-1.1-1.4-1.7l-1.3-1.5c-0.3-0.4-0.6-0.5-0.6-0.5c0,0,0.1,0,0,0c-0.1,0-0.2,0.1-0.3,0.2c-0.6,0.6-1.2,1.8-1.6,3
			c-0.4,1.2-0.7,2.5-1,3.9c-0.5,2.7-0.8,5.4-0.9,8.2c-0.2,5.5,0,11.1,0.7,16.7c1.4,11.1,4.4,22,9.5,31.9l-2,1
			c-2.7-5.1-4.8-10.4-6.5-15.8c-1.7-5.5-3-11-3.9-16.7c-0.9-5.7-1.3-11.4-1.2-17.2c0.1-2.9,0.3-5.8,0.7-8.7c0.2-1.5,0.5-2.9,1-4.4
			c0.2-0.7,0.5-1.5,0.8-2.2c0.4-0.7,0.8-1.5,1.5-2.3c0.3-0.4,0.8-0.7,1.4-1c0.6-0.3,1.4-0.4,2.1-0.4c1.4,0.2,2.3,1,2.9,1.6l1.5,1.7
			c0.4,0.5,0.9,1,1.4,1.5c1.9,2,3.8,4.1,5.8,6.1c4,4,8,7.9,12.1,11.8c8.2,7.8,16.4,15.5,24.8,23.1L398.6,260.9z"/>
	</g>
	<path class="st13" d="M357,215.6c0,0,3.7,23.2,20.1,31.7c0,0-11.1-0.5-18.7-7.1c0,0,8.4,14.2,19.5,15c0,0-7.9,4.7-6.6,15.3"/>
	<path class="st9" d="M247.8,433.3c1.6,41.7,51.7,32.7,51.7,32.7c17.7-3.5,32.4-16,41.3-25.5c7.3-7.7,17.5-12,28.1-12.2
		c122.8-1.6,154.6,87.5,232.4,88.2c95,0.8,131.6-42.9,131.6-42.9"/>
	
		<ellipse transform="matrix(0.9695 -0.2452 0.2452 0.9695 -65.0435 123.2008)" class="st9" cx="462.2" cy="322.8" rx="31.7" ry="20.6"/>
	<path class="st14" d="M457.8,932.5c-1.9,11.8-4.3,21.6-6.8,29.6c-5.1,16.4-20.2,27.5-37.4,27.5h0c-20.3,0-37.3-15.6-39-35.9
		c-3.8-46.5-15.5-129.4-50.9-194.9c-16.3-30.1-21.7-60.8-18.9-84.9c2.9-24.3,8-48.8,8-48.8"/>
	<ellipse transform="matrix(0.5 -0.866 0.866 0.5 -92.3933 486.4751)" class="st9" cx="375.1" cy="323.3" rx="21.8" ry="13.4"/>
	<g>
		<path class="st2" d="M625.9,382.3c1.4,6.6,3.2,13.1,5.3,19.5c2.1,6.4,4.4,12.7,7.1,18.9c2.7,6.1,5.8,12.1,9.4,17.7
			c3.6,5.6,7.7,10.8,12.6,15l4.7,4.1l-6.2,0.4c-0.9,0.1-1.6,0-2.4,0c-0.7,0-1.5-0.1-2.2-0.2c-1.5-0.2-2.9-0.4-4.4-0.7
			c-1.4-0.3-2.9-0.7-4.3-1.2c-1.4-0.5-2.8-1-4.1-1.6l3.4-3.5c1,2.2,1.9,4.2,2.7,6.3c0.8,2.1,1.5,4.3,2.2,6.4
			c1.3,4.3,2.4,8.8,3.2,13.2c0.8,4.5,1.2,9.1,1.3,13.6l0,3.4c0,1.1-0.2,2.3-0.2,3.4l-0.1,1.7c-0.1,0.6-0.2,1.1-0.3,1.7l-0.5,3.4
			l-1.3,8.2l-3.6-7.7c-0.4-0.8-0.9-1.8-1.4-2.6c-0.5-0.9-1.1-1.8-1.7-2.6c-1.2-1.7-2.5-3.3-3.9-4.9l0,0l4.5-2c0.1,1,0.1,1.7,0,2.6
			c0,0.8-0.1,1.6-0.1,2.4c-0.1,1.6-0.3,3.2-0.6,4.8c-0.5,3.2-1.3,6.3-2.3,9.4c-2,6.1-4.9,11.9-8.5,17c-3.7,5.2-8,9.8-12.9,13.8
			c-4.8,4-10.1,7.4-15.7,10.2c-0.1,0.1-0.3,0-0.4-0.1c-0.1-0.1,0-0.3,0.1-0.3c5.3-3.1,10.3-6.8,14.8-11c4.5-4.2,8.4-8.9,11.6-14.1
			c3.2-5.2,5.6-10.8,7.1-16.6c0.7-2.9,1.3-5.9,1.6-8.8c0.1-1.5,0.2-3,0.2-4.4c0-0.7,0-1.5,0-2.2c0-0.7-0.1-1.5-0.2-2.1l-1.1-8.3
			l5.5,6.3l0,0c1.5,1.7,3,3.5,4.3,5.4c0.7,0.9,1.3,1.9,1.9,2.9c0.6,1,1.1,2,1.7,3.2l-4.9,0.5l0.5-3.1c0.1-0.5,0.2-1,0.2-1.6l0.1-1.6
			c0.1-1.1,0.2-2.1,0.2-3.2l0-3.2c-0.1-4.3-0.4-8.6-1.2-12.8c-0.7-4.2-1.8-8.5-3-12.6c-0.7-2.1-1.3-4.1-2.1-6.1
			c-0.8-2-1.6-4-2.5-5.9l-3-6.3l6.4,2.8c1.2,0.5,2.4,1,3.6,1.4c1.2,0.4,2.5,0.7,3.7,1c1.3,0.3,2.5,0.5,3.8,0.6
			c0.6,0.1,1.3,0.1,1.9,0.1c0.6,0,1.3,0,1.8,0l-1.5,4.5c-5.1-4.9-9.3-10.6-12.7-16.6c-3.5-6-6.3-12.2-8.8-18.6
			c-2.5-6.4-4.6-12.9-6.4-19.4c-1.8-6.6-3.3-13.2-4.5-19.9c-0.1-0.4,0.2-0.8,0.6-0.8C625.4,381.7,625.8,381.9,625.9,382.3
			L625.9,382.3z"/>
	</g>
	<g>
		<path class="st2" d="M701.5,340.2c0.9,1.2,1.6,2.3,2.3,3.5c0.7,1.2,1.4,2.3,2,3.5c1.3,2.4,2.5,4.7,3.6,7.2
			c2.3,4.8,4.4,9.7,6.4,14.7c4,9.9,7.5,19.9,10.8,30.1c0.9,2.5,1.6,5.1,2.4,7.7c0.8,2.6,1.4,5.2,2.1,7.8c0.6,2.6,1.2,5.2,1.7,7.9
			c0.4,2.6,1,5.3,1.3,7.9l0.5,4l0.3,4l0.2,2l0.1,2c0,1.3,0.1,2.7,0.1,4c0,5.4-0.2,10.8-0.8,16.1c-0.6,5.3-1.6,10.6-2.9,15.9
			c-1.3,5.2-2.9,10.4-4.8,15.4c-3.7,10.1-8.4,19.7-13.1,29.2c-4.7,9.5-9.5,19-13.1,28.8c-1.8,4.9-3.3,10-4.6,15
			c-0.6,2.5-1.2,5.1-1.6,7.6c-0.2,1.3-0.4,2.6-0.5,3.8c-0.1,0.6-0.1,1.3-0.1,1.9c0,0.3,0,0.6,0,0.9c0,0.3,0,0.6,0,0.8l0,0.2l0,0.1
			c0,2,0.1,4.1,0.3,6.2c0.2,2.1,0.5,4.2,0.8,6.3c0.7,4.2,1.8,8.3,3.1,12.3c1.3,4,3,8,4.8,11.9c1.7,3.9,3.6,7.8,5.5,11.7
			c7.7,15.4,16.2,30.5,24.5,45.8c16.6,30.5,32.6,61.4,44.8,94.1c6.1,16.3,11.3,33.1,14.8,50.2c3.5,17.1,5.4,34.7,4.8,52.3
			c-0.6,17.6-3.8,35.2-10,51.8c-6.1,16.6-15.2,32-26.3,45.8c-1.1,1.4-3.1,1.6-4.5,0.5c-1.4-1.1-1.6-3.1-0.5-4.5l0,0l0,0
			c10.8-13.2,19.5-28,25.5-43.9c6-15.9,9.2-32.8,9.9-49.8c0.7-17.1-1-34.2-4.4-51c-3.4-16.8-8.3-33.3-14.3-49.5
			c-11.9-32.4-27.6-63.2-44-93.7c-8.2-15.3-16.6-30.4-24.3-46.1c-1.9-3.9-3.8-7.8-5.6-11.9c-1.7-4-3.4-8-4.8-12.3
			c-1.4-4.2-2.4-8.5-3.2-12.9c-0.4-2.2-0.7-4.4-0.8-6.6c-0.2-2.2-0.3-4.4-0.2-6.8l0,0.3c0-0.5,0-0.8,0-1.2c0-0.4,0-0.7,0-1.1
			c0-0.7,0.1-1.4,0.2-2.1c0.1-1.4,0.3-2.7,0.5-4.1c0.4-2.7,1-5.3,1.7-7.9c1.3-5.2,2.9-10.3,4.8-15.4c3.8-10.1,8.7-19.6,13.5-29.1
			c4.8-9.5,9.5-18.9,13.2-28.8c1.8-4.9,3.5-9.9,4.8-15c1.3-5.1,2.2-10.2,2.9-15.4c0.6-5.2,0.9-10.5,0.9-15.7c0-1.3-0.1-2.6-0.1-3.9
			l-0.1-2l-0.1-2l-0.3-3.9l-0.5-3.9c-0.3-2.6-0.8-5.2-1.2-7.8c-0.5-2.6-1.1-5.2-1.6-7.7c-0.7-2.5-1.3-5.1-2-7.6
			c-0.8-2.5-1.5-5.1-2.3-7.6c-3.2-10.1-6.7-20.1-10.6-30c-1.9-4.9-4-9.8-6.2-14.6c-1.1-2.4-2.3-4.7-3.5-7.1
			c-0.6-1.2-1.3-2.3-1.9-3.4c-0.7-1.1-1.4-2.3-2.1-3.2l-0.1-0.1c-0.4-0.5-0.3-1.3,0.2-1.7C700.3,339.5,701.1,339.6,701.5,340.2z"/>
	</g>
</g>
<g id="Layer_6">
	<g>
		<path class="st2" d="M344,520.4c-1.2,0.9-2.3,1.7-3.5,2.4c-1.2,0.7-2.4,1.4-3.6,2c-2.5,1.2-5,2.3-7.7,3
			c-5.3,1.6-11.1,2.2-16.8,1.2c-5.7-1-11-3.5-15.4-7.1c-4.5-3.6-7.9-8.6-9.7-14c-1.8-5.4-2-11.2-1.3-16.6c0.8-5.5,2.6-10.7,5-15.5
			c4.9-9.6,12.5-17.7,21.8-23.1l1.8,2.9c-8.3,5.5-15,13.4-19.2,22.3c-2.1,4.5-3.5,9.2-4,14c-0.5,4.8-0.2,9.6,1.4,14
			c1.6,4.4,4.4,8.1,8,10.9c3.7,2.9,8,4.9,12.5,5.6c4.5,0.7,9.3,0.3,13.8-1.1c2.3-0.7,4.5-1.5,6.7-2.6c1.1-0.5,2.2-1.1,3.2-1.7
			c1-0.6,2.1-1.3,3-1.8L344,520.4z"/>
	</g>
	<path class="st2" d="M331.5,496.1c0,0,6.3,35.2,47.1,32.7c40.8-2.5,83.7-46.4,100.6-41.9c16.9,4.6,12.9,23.7-26.7,33.8
		c-29.2,7.4-21.1,57.3-54.5,60.9c-33.4,3.5-26-45-26-45S336.1,540.1,331.5,496.1z"/>
	<g>
		<path class="st2" d="M497.1,495.6c0.1-0.7,0.1-1.6,0-2.3c-0.1-0.8-0.1-1.6-0.3-2.4c-0.3-1.6-0.8-3.2-1.5-4.6
			c-1.4-2.9-3.9-5.3-6.9-6.8c-3-1.5-6.4-2.3-9.9-2.6c-3.5-0.3-7-0.1-10.5,0.3c-0.2,0-0.4-0.1-0.5-0.3c0-0.2,0.1-0.4,0.3-0.4
			c3.5-0.7,7.1-1.1,10.7-1.1c0.9,0,1.8,0.1,2.7,0.1c0.9,0.1,1.8,0.2,2.7,0.4c1.8,0.3,3.6,0.8,5.3,1.6c3.5,1.4,6.6,4.1,8.5,7.4
			c1,1.7,1.7,3.5,2.2,5.3c0.2,0.9,0.4,1.9,0.5,2.8c0.1,1,0.2,1.9,0.2,3c0,1-0.9,1.8-1.9,1.8c-1,0-1.8-0.9-1.8-1.9
			C497.1,495.7,497.1,495.7,497.1,495.6L497.1,495.6z"/>
	</g>
	<path class="st2" d="M318.8,527.1c0,0,17.3,2.9,25,28.3c7.7,25.3,27.2,39.1,53.2,35.2c26-3.9,33.3-28.9,49.2-47.5
		c10.1-11.8,23.8-23.7,34.7-33.2c10.9-9.5,9.1-23.2-5.3-23.2c0,0-11.6,19.3-35.9,31c-24.3,11.6-59.8,20.1-67.9,19
		c-8.1-1.1-25.3-10.2-25.3-11.3c0-1.1-7.7-5.3-7.7-5.3L318.8,527.1z"/>
	<path class="st1" d="M480.6,494.7c-4.1-5.4-21.1,0.3-44.1,16.7c-23.1,16.4-62.5,36.1-94.7,12.2l-9.1,2.9c0,0,10.2,7.5,16,21.9
		s11.7,35.7,42.3,35.7s40.1-35.9,59.4-52.5C469.8,515,486.5,502.5,480.6,494.7z"/>
	<path class="st2" d="M466.9,518.4c0,0-40.2,32.6-86.1,32.9c0,0,37.6,1.3,65.5-12.6L466.9,518.4z"/>
	<path class="st2" d="M422.8,568.3c0,0-7.3,9.3-15-2.7c0,0,2.7,11-4.7,13.3c-7.3,2.3-12.8-10-12.8-10s2.2,12.5-4.8,12.5
		s-13.5-11-13.5-11s0.8,8-5.8,7.3s2.2,5.5,11.3,7.5c9.1,2,23.6,4.8,32.3-1.3C418.5,577.8,422.8,568.3,422.8,568.3z"/>
	<path class="st2" d="M483.1,497.5c0,0-3.1-4.2-7.3-3.1c-4.2,1.1-5.1,12.6-5.1,12.6s-2.9-8-7.8-7.1s-5.8,12.2-5.8,12.2
		s-2.9-8.4-8.2-6.2c-5.3,2.2-5.5,9.8-5.5,9.8s-6.7-4.9-9.1-4.4s15.5-10.4,23.1-14.4c7.5-4,12.2-8.4,19.3-7.3c7.1,1.1,8.9,6,8.9,6"/>
	<g>
		<path class="st2" d="M360.7,599c1,0.6,2.3,1.2,3.5,1.8c1.2,0.6,2.5,1.1,3.7,1.6c2.5,1,5.1,1.8,7.7,2.5c5.3,1.3,10.7,2,16.1,1.8
			c2.7-0.1,5.4-0.3,8.1-0.8c2.7-0.5,5.3-1.1,7.9-2c0.7-0.2,1.3-0.4,1.9-0.7c0.6-0.3,1.3-0.5,1.9-0.8c1.2-0.6,2.5-1.1,3.7-1.8
			c0.6-0.3,1.2-0.6,1.8-1l1.8-1.1c1.2-0.7,2.4-1.4,3.5-2.2c4.5-3.1,8.7-6.8,12.4-11c3.7-4.1,6.7-8.8,9.5-13.7
			c2.8-4.9,5.3-10,8.1-14.9c2.8-4.9,6.1-9.7,10.3-13.6c0.2-0.2,0.5-0.2,0.7,0c0.2,0.2,0.2,0.5,0,0.7c-4,3.9-7,8.7-9.6,13.7
			c-2.6,5-4.9,10.1-7.5,15.2c-2.6,5.1-5.6,10-9.3,14.5c-3.7,4.5-7.9,8.5-12.5,12c-1.2,0.9-2.4,1.6-3.6,2.4l-1.8,1.2
			c-0.6,0.4-1.3,0.7-1.9,1.1c-1.3,0.8-2.6,1.4-3.9,2c-0.7,0.3-1.3,0.6-2,0.9c-0.7,0.3-1.3,0.6-2,0.8c-2.7,1.1-5.6,1.9-8.4,2.5
			c-2.9,0.6-5.8,1-8.7,1.2c-5.9,0.4-11.8-0.1-17.5-1.3c-2.9-0.6-5.7-1.4-8.5-2.4c-1.4-0.5-2.8-1-4.1-1.6c-1.4-0.6-2.7-1.2-4.1-2
			c-1.5-0.8-2-2.6-1.2-4.1c0.8-1.5,2.6-2,4.1-1.2C360.5,598.9,360.5,598.9,360.7,599L360.7,599z"/>
	</g>
	<path class="st15" d="M331.7,496.1c15.7,1.8,32.2-16.4,33.2-28c1.1-11.6-24.8-24.8-43.3-20.6C303.2,451.8,303.7,492.9,331.7,496.1z
		"/>
	<path class="st16" d="M331.7,496.1c15.7,1.8,32.2-16.4,33.2-28c1.1-11.6-24.8-24.8-43.3-20.6C303.2,451.8,303.7,492.9,331.7,496.1z
		"/>
	<path class="st2" d="M364.9,468.1c0,0-2.9,15.6-19,10.8s-18.5-2.9-18.5,1.8s7.9,10,15.3,7.1c7.4-2.9,8.2-5.5,8.2-5.5
		S364.1,483.4,364.9,468.1z"/>
	<path class="st2" d="M331.7,496.1c0,0-15-5.3-12.8-27.8c0,0-4.3,14.3,4.1,24.4"/>
	<circle class="st2" cx="377.6" cy="510.2" r="2.8"/>
	<circle class="st2" cx="369.1" cy="520" r="2.8"/>
	<circle class="st2" cx="353.3" cy="515.5" r="2.8"/>
	<circle class="st2" cx="360.5" cy="504.5" r="2.8"/>
	<circle class="st2" cx="344.6" cy="503.4" r="2.8"/>
	<circle class="st2" cx="376.4" cy="495.6" r="2.8"/>
	<circle class="st2" cx="399.6" cy="483.8" r="2.8"/>
	<circle class="st2" cx="395.8" cy="502.8" r="2.8"/>
	<circle class="st2" cx="394" cy="516.3" r="2.8"/>
	<circle class="st2" cx="364.7" cy="491.3" r="2.8"/>
	<circle class="st2" cx="332.3" cy="506" r="2.8"/>
	<circle class="st2" cx="323.8" cy="515.9" r="2.8"/>
	<circle class="st2" cx="308" cy="511.3" r="2.8"/>
	<circle class="st2" cx="315.2" cy="500.4" r="2.8"/>
	<circle class="st2" cx="299.3" cy="499.2" r="2.8"/>
	<circle class="st2" cx="295.2" cy="484.3" r="2.8"/>
	<circle class="st2" cx="308.3" cy="480" r="2.8"/>
	<circle class="st2" cx="380.4" cy="477.6" r="2.8"/>
	<g>
		<path class="st2" d="M320.4,445.5c2.5-1.8,5.1-3.6,7.6-5.5c2.5-1.9,5-3.8,7.5-5.7c2.5-2,4.9-3.9,7.3-6c2.4-2,4.7-4.1,7-6.2
			c2.3-2.1,4.4-4.4,6.8-6.4c2.3-2.1,4.5-4.3,6.5-6.6c4-4.7,7.6-9.9,9.5-15.6l2.7,0.7c-0.7,3.3-1.9,6.4-3.4,9.3
			c-1.5,3-3.2,5.8-5.1,8.5c-1.9,2.7-3.8,5.3-5.9,7.9c-2.1,2.5-4.4,4.8-6.8,7c-4.8,4.4-9.8,8.5-15,12.3c-5.2,3.8-10.5,7.4-16.2,10.6
			L320.4,445.5z"/>
	</g>
</g>
<g id="LEASH">
	<path class="st17" d="M401.3,691c-16.2,1.2-41.2,22.5-41.2,44.9s4.3,54.3,39.5,52s47.2-34.7,43.2-56.6
		C438.8,709.4,427.2,689,401.3,691z"/>
	<polygon class="st17" points="393,678.4 392.6,702.4 409.2,695.8 409.8,678.5 	"/>
	<path class="st18" d="M691.9,582.1l5.1-28.4c0,0-108.6,107.5-284.9,124l-2.8,13.1c0,0,26.7,3.4,34.1,37.5
		C443.4,728.2,604.9,702.6,691.9,582.1z"/>
	<path class="st18" d="M392.5,691.5l0.6-13.1c0,0-37.5-3.4-56.6-13.9s-27.6-17.6-27.6-17.6l-4.8,25c0,0,21.6,42.7,56.6,53.5
		c0,0,5.7-18.8,15.9-24.5C386.8,695.2,392.5,691.5,392.5,691.5z"/>
	<path class="st19" d="M694.5,556.5c0,0-56.9,53.5-119.4,82.6c0,0-15.2,15.5,1.1,17.4c16.3,1.9,3,22.4,3,22.4s62.9-44.1,88-67.1
		C681.3,598.9,696.8,586,694.5,556.5z"/>
	<g>
		<g>
			<path class="st20" d="M398.8,760.1c-7,0-12.8-1.3-16.8-3.8c-4.6-2.8-6.7-7-6.5-12.5c0-0.1,0-0.2,0-0.3c0-0.1,0-0.2,0-0.2l0.1,0
				c0,1.9,1,3.4,2.7,4.1c2.6,1.1,6.1,0.2,9-2.3c0.9-0.8,1.7-1.5,2.4-2.2c3.8-3.5,6.3-5.8,10.2-5.8c3.9,0,6.2,2.3,9.7,5.8
				c0.7,0.7,1.4,1.4,2.2,2.2c2.6,2.5,6,3.4,8.8,2.3c1.8-0.7,2.9-2.2,3.1-4.1l0.1,0c0,0.1,0,0.2,0,0.2c0,0.1,0,0.2,0,0.3
				c-0.2,5.5-2.8,9.7-7.6,12.5C411.7,758.7,405.8,760.1,398.8,760.1z M375.5,743.8c-0.2,5.4,1.9,9.6,6.5,12.4
				c4,2.5,9.8,3.8,16.8,3.8c7,0,12.9-1.3,17.1-3.8c4.8-2.8,7.3-7,7.6-12.4c-0.3,1.6-1.4,2.9-3,3.6c-2.8,1.1-6.2,0.2-8.8-2.3
				c-0.8-0.8-1.5-1.5-2.2-2.2c-3.6-3.6-5.7-5.8-9.6-5.8s-6.2,2.2-10.1,5.8c-0.8,0.7-1.5,1.4-2.4,2.2c-2.8,2.5-6.4,3.5-9,2.3
				C376.7,746.7,375.7,745.4,375.5,743.8z"/>
		</g>
		<g>
			<path class="st20" d="M398.8,760.8c-15.7,0-24.5-6.2-24-17c0.1-2.6,0.7-5.3,1.8-8c-1.7-6.8-0.3-15.1,2-18.4
				c0.7-1,1.4-1.5,2.3-1.6c3.1-0.4,7.2,2.9,9.5,5c6.6-3.1,14.4-3.1,20.7,0c2.5-2.2,6.9-5.4,9.9-5c0.8,0.1,1.5,0.6,2.1,1.6
				c2,3.3,2.6,11.6,0.3,18.4c0.8,2.7,1.2,5.4,1,8C423.8,754.6,414.5,760.8,398.8,760.8z M381.2,717.2c-0.1,0-0.2,0-0.3,0
				c-0.3,0-0.8,0.4-1.2,1c-2.1,3.1-3.3,11.1-1.7,17.4c0,0.2,0,0.3,0,0.5c-1,2.6-1.6,5.2-1.7,7.7c-0.6,14,15.6,15.5,22.6,15.5h0
				c7,0,23.3-1.5,24-15.5c0.1-2.5-0.2-5.1-1-7.7c0-0.2,0-0.3,0-0.5c2.2-6.2,1.7-14.3-0.1-17.4c-0.4-0.6-0.7-0.9-1.1-1
				c-2.7-0.3-7.4,3.4-9.1,5c-0.2,0.2-0.6,0.3-0.8,0.1c-6.1-3.2-13.8-3.2-20.3,0c-0.3,0.1-0.6,0.1-0.8-0.1
				C388,720.7,384,717.2,381.2,717.2z"/>
		</g>
		<g>
			<path class="st20" d="M422.4,736.5c-0.3,0-0.6-0.2-0.7-0.5c-1.5-4.8-4.4-9-8.2-11.8c-0.3-0.2-0.4-0.7-0.1-1
				c3.2-4.5,7.6-6.5,8.1-6.7c0.3-0.1,0.6-0.1,0.8,0.1c2.6,2.6,3.5,12.1,0.9,19.4C423.1,736.3,422.8,736.5,422.4,736.5
				C422.4,736.5,422.4,736.5,422.4,736.5z M415,723.4c3.2,2.6,5.8,6,7.4,10c1.5-6.2,0.7-13-0.9-15.3
				C420.4,718.6,417.4,720.3,415,723.4z"/>
		</g>
		<g>
			<path class="st20" d="M377.3,736.5C377.3,736.5,377.3,736.5,377.3,736.5c-0.3,0-0.6-0.2-0.7-0.5c-1.9-7.4-0.2-16.8,2.6-19.4
				c0.2-0.2,0.6-0.3,0.8-0.1c0.5,0.2,4.7,2.2,7.5,6.7c0.2,0.3,0.1,0.8-0.2,1c-4.1,2.9-7.4,7.1-9.3,11.8
				C377.9,736.3,377.6,736.5,377.3,736.5z M379.8,718c-1.8,2.3-3.2,9.1-2.3,15.3c2-3.9,4.8-7.4,8.3-10
				C383.7,720.3,381,718.6,379.8,718z"/>
		</g>
		<g>
			<g>
				<path class="st20" d="M387.3,734.5c-1.9,0.3-3.3,2-3.2,3.9c0.2,1.9,1.8,2.4,3.7,2.1c1.9-0.3,3.4-1.1,3.3-3
					C390.9,735.6,389.2,734.2,387.3,734.5z M389.2,736.8c-0.1,0.6-0.6,1-1.2,1c-0.6,0-1-0.6-0.9-1.2c0.1-0.6,0.6-1,1.2-1
					C388.8,735.7,389.3,736.2,389.2,736.8z"/>
			</g>
			<g>
				<path class="st20" d="M412.6,734.5c-1.9-0.2-3.7,1.1-4,3c-0.3,1.9,1.1,2.8,3,3c1.9,0.2,3.5-0.2,3.9-2.1
					C415.7,736.5,414.5,734.7,412.6,734.5z M411.6,737.8c-0.6,0-1.1-0.4-1.1-1c0-0.6,0.5-1.1,1-1.2c0.6,0,1.1,0.4,1.1,1
					C412.6,737.3,412.2,737.8,411.6,737.8z"/>
			</g>
		</g>
		<g>
			<path class="st20" d="M390.7,732.8c-1.4,0-2.7-0.7-2.7-2c0.1-1.3,1.7-2.5,3-2.5c1.4,0,2.2,1.3,2.2,2.5
				C393.2,732.1,392.2,732.8,390.7,732.8z M391,728.5c-1.3,0-2.9,1.1-3,2.4c-0.1,1.2,1.3,1.9,2.6,1.9c1.5,0,2.4-0.7,2.5-1.9
				C393.2,729.7,392.4,728.5,391,728.5z"/>
		</g>
		<g>
			<path class="st20" d="M409.4,732.8c-1.5,0-2.4-0.8-2.4-2c0.1-1.2,1-2.5,2.4-2.5c1.3,0,2.9,1.1,2.8,2.5
				C412.1,732.2,410.7,732.8,409.4,732.8z M409.4,728.5c-1.4,0-2.3,1.2-2.3,2.4c-0.1,1.2,0.9,1.9,2.3,1.9c1.3,0,2.7-0.7,2.7-1.9
				C412.2,729.6,410.7,728.5,409.4,728.5z"/>
		</g>
		<g>
			<path class="st20" d="M406.4,743.7c-0.4-0.2-0.8,0-1,0.4c0,0-0.8,1.8-2.2,2.3c-0.9,0.3-2.3-0.6-3-1.2l0-0.1
				c1.9-0.4,3.4-2.2,3.5-3.7c0.1-1.3-1.6-2.3-3.9-2.3s-4.1,1-4.1,2.3c-0.1,1.5,1.3,3.3,3.1,3.7l0,0.1c-0.7,0.6-2.2,1.5-3.1,1.2
				c-1.3-0.5-1.9-2.3-2-2.3c-0.1-0.4-0.6-0.6-0.9-0.4c-0.4,0.1-0.6,0.6-0.5,1c0,0.1,0.8,2.2,2.5,3c0.1,2.6,1.7,5.3,4,5.5
				c0,0,0,0,0,0c0,0,0.1,0,0.1,0c0,0,0,0,0,0c0,0,0.1,0,0.1,0c0,0,0.1,0,0.1,0c0,0,0,0,0,0c0,0,0.1,0,0.1,0c0,0,0,0,0,0
				c2.3-0.2,4.1-2.9,4.5-5.5c1.9-0.8,2.9-3,2.9-3.1C406.9,744.2,406.7,743.8,406.4,743.7z M399.1,751.9c-1,0-1.9-0.9-2.3-2.1
				c0.6-0.4,1.5-0.7,2.5-0.7c0.9,0,1.7,0.3,2.3,0.7C401.1,751,400.1,751.9,399.1,751.9z"/>
		</g>
	</g>
	<g>
		<path class="st2" d="M445.6,747.3c-2.1,12.3-8,24.2-17.5,32.8c-4.7,4.3-10.4,7.7-16.6,9.7c-6.2,2-12.9,2.5-19.4,1.3
			c-6.4-1.2-12.5-4-17.6-8.1c-5.1-4-9.2-9.1-12.2-14.8c-6-11.3-7.4-24.6-5-36.8c2.4-12.3,8.6-23.9,18.1-32.1
			c4.7-4.1,10.3-7.3,16.3-9.2c6-1.9,12.5-2.3,18.7-1.1c6.2,1.1,12.1,3.8,17,7.6c5,3.8,9.1,8.7,12.1,14.2c3.1,5.5,5.1,11.5,6,17.7
			C446.7,734.8,446.6,741.1,445.6,747.3z M440.6,746.4c2.2-11.2,0.8-23.3-4.4-33.5c-2.7-5.1-6.3-9.7-10.8-13.2
			c-4.5-3.5-9.8-6-15.5-7c-5.6-1-11.5-0.5-16.9,1.3c-5.4,1.8-10.4,4.8-14.7,8.6c-8.6,7.7-14,18.6-15.8,29.9
			c-1.9,11.3-0.1,23.2,5.4,33c2.7,4.9,6.3,9.3,10.7,12.6c4.4,3.3,9.5,5.6,14.9,6.5c10.8,2,22.2-1.8,30.6-9.1
			c4.3-3.6,7.9-8.1,10.7-13.1C437.5,757.5,439.4,752,440.6,746.4z"/>
	</g>
	<g>
		<g>
			<path class="st9" d="M693.2,573.7c0,0-0.5,0.7-1.4,1.9"/>
			<path class="st21" d="M686.9,582C666,608,592,687.7,448.3,716.5"/>
			<path class="st9" d="M444.3,717.3c-0.8,0.1-1.6,0.3-2.3,0.4"/>
		</g>
	</g>
	<path class="st22" d="M695.3,561.5c0,0-123,119.3-283.9,123"/>
	<path class="st22" d="M391.7,685.7c0,0-56.6-2.1-82.3-33.1"/>
	<path class="st22" d="M364.2,717.4c0,0-37.3-12.3-58.4-54.2"/>
	<path class="st23" d="M443.7,727.6C621,694.9,691.4,582,691.4,582l5.7-25.4c0.2-0.8-0.7-1.3-1.3-0.8
		c-72,65.7-195,116.3-275.3,121.8c-80.9,5.6-111.9-31.7-111.9-31.7l-4.4,22.2c18.5,42.2,55.8,55.9,55.8,55.9"/>
	<line class="st23" x1="410" y1="689.4" x2="410.7" y2="679.2"/>
	<line class="st23" x1="392.7" y1="691.2" x2="393.4" y2="678.3"/>
</g>
<g id="EYES">
	<path class="st24" d="M373.5,390.8c0,0,5.6-39.7-42.3-30.4l-23.9,23.5c0,0-1.1,38.1,47.8,37.5C355,421.4,373.2,400.9,373.5,390.8z"
		/>
	<path class="st24" d="M536.4,401.3L531,391c0,0-20.3-37.6-58.2-30.6S426.9,420,426.9,420s31,17.1,62,13.9
		C519.9,430.8,536.4,401.3,536.4,401.3z"/>
	<g>
		<circle class="st25" cx="492" cy="397.7" r="28.3"/>
		<path class="st10" d="M488,399.9c0,0-11.2-1.8-17.8,8.5c0,0,8.2,15.4,23,13.6c14.8-1.7,19.3-10.5,21.9-15.6c0,0-7.4-9.4-22-6.7"/>
		<circle class="st2" cx="492.1" cy="398" r="8.2"/>
		<circle class="st24" cx="482.8" cy="395.7" r="4.6"/>
		<circle class="st26" cx="492" cy="397.7" r="28.3"/>
	</g>
	<g>
		
			<ellipse transform="matrix(0.157 -0.9876 0.9876 0.157 -90.9356 675.8832)" class="st25" cx="350.4" cy="391.2" rx="24.9" ry="22.3"/>
		<path class="st10" d="M347,392.6c0,0-8.5-3-15,5.2c0,0,4.3,14.4,16.1,14.7c11.8,0.3,16.5-6.8,19.3-10.9c0,0-4.5-9.1-16.3-8.5"/>
		
			<ellipse transform="matrix(0.157 -0.9876 0.9876 0.157 -91.2445 676.1144)" class="st2" cx="350.4" cy="391.5" rx="7.2" ry="6.5"/>
		
			<ellipse transform="matrix(0.157 -0.9876 0.9876 0.157 -93.9506 666.694)" class="st24" cx="343.5" cy="388.4" rx="4.1" ry="3.7"/>
		
			<ellipse transform="matrix(0.157 -0.9876 0.9876 0.157 -90.9356 675.8832)" class="st27" cx="350.4" cy="391.2" rx="24.9" ry="22.3"/>
	</g>
	<g>
		<path class="st2" d="M533.3,401.4c0,0.2,0,0.4,0,0.5c0,0.1,0,0.2,0,0.3c0,0.1,0,0.1,0,0.1l0-0.1l-0.1-0.3l-0.2-0.6l-0.4-1.1
			c-0.3-0.8-0.6-1.5-1-2.3c-0.6-1.5-1.4-3-2.1-4.5c-1.5-2.9-3.2-5.8-5-8.5c-3.7-5.4-8-10.3-13.1-14.2c-2.5-1.9-5.2-3.7-8.1-5.1
			c-2.9-1.4-5.9-2.5-8.9-3.3c-3.1-0.7-6.3-1.2-9.5-1.3c-3.2-0.1-6.4,0-9.5,0.6c-6.3,1-12.2,3.7-17.3,7.5c-5.2,3.8-9.6,8.7-13.5,14.1
			c-3.8,5.4-7,11.4-9.6,17.5c-2.7,6.1-4.9,12.6-6.6,19.1l0,0l-0.6-1.3c4.5,2.3,9.2,4.2,14,5.9c4.8,1.7,9.6,3.2,14.6,4.3
			c9.8,2.3,20,3.5,30,2.7c5-0.4,9.9-1.3,14.6-2.8c4.7-1.4,9.2-3.7,13.3-6.4l1.5-1l0.8-0.5l0.7-0.6l2.9-2.3c0.9-0.8,1.8-1.7,2.7-2.6
			c0.4-0.4,0.9-0.8,1.3-1.3l1.2-1.4c0.8-0.9,1.6-1.8,2.4-2.8l2.1-3l0.5-0.8c0.2-0.3,0.4-0.5,0.5-0.7c0.3-0.4,0.5-0.9,0.8-1.3
			C532.1,403.1,532.7,402.2,533.3,401.4z M538.5,401.9c-0.7,1.3-1.5,2.7-2.2,4l-1.2,2c-0.2,0.3-0.4,0.6-0.6,0.9l-0.6,0.8l-2.4,3.2
			c-0.8,1-1.8,2-2.6,3l-1.3,1.5c-0.5,0.5-1,0.9-1.4,1.4c-1,0.9-1.9,1.8-2.9,2.7l-3.2,2.5l-0.8,0.6l-0.8,0.5l-1.7,1.1
			c-4.5,2.8-9.4,5.1-14.5,6.5c-5.1,1.5-10.3,2.3-15.6,2.7c-10.5,0.6-20.9-0.9-31-3.5c-5-1.3-10-2.9-14.8-4.7
			c-4.8-1.9-9.6-3.9-14.2-6.4l-0.8-0.4l0.2-0.8l0,0c0.5-3.5,1.3-6.8,2.2-10.2c0.9-3.3,1.9-6.6,3.1-9.9c1.2-3.3,2.6-6.5,4.1-9.6
			c1.5-3.1,3.2-6.2,5.1-9.2c3.7-5.9,8.4-11.5,14.1-16c2.9-2.2,5.9-4.2,9.2-5.7c0.4-0.2,0.8-0.4,1.2-0.6l1.3-0.5
			c0.9-0.3,1.7-0.7,2.6-0.9c1.8-0.5,3.5-1.1,5.3-1.3c1.8-0.4,3.6-0.5,5.4-0.7c0.9-0.1,1.8-0.1,2.7-0.1c0.9,0,1.8-0.1,2.7,0
			c3.6,0.1,7.2,0.6,10.8,1.4c7.1,1.7,13.8,5,19.5,9.6c5.7,4.5,10.4,10,14.2,16c1.9,3,3.6,6.1,5,9.3c0.7,1.6,1.4,3.2,2.1,4.9
			c0.3,0.8,0.6,1.7,0.9,2.5l0.4,1.3l0.2,0.7l0.1,0.3l0,0.2l0,0.2c0,0.1,0,0.2,0.1,0.3C538.5,401.5,538.5,401.7,538.5,401.9z"/>
	</g>
	<g>
		<path class="st2" d="M480.4,444.9c-2.5,0-5.1,0-7.6-0.3c-2.5-0.3-5-0.7-7.4-1.4c-4.9-1.2-9.6-3-14-5.1c-4.5-2.1-8.8-4.6-12.9-7.4
			c-4.1-2.8-8-5.7-11.8-9.1l-0.3-0.3l-0.1-0.4l0,0c-0.5-3.9-0.5-7.7-0.3-11.6c0.2-3.8,0.7-7.6,1.4-11.4c1.5-7.5,4.1-14.8,7.9-21.4
			c3.8-6.6,8.8-12.5,14.6-17.4c5.8-4.9,12.4-8.8,19.4-11.7c-6.9,3.2-13.4,7.2-19,12.2c-5.6,5-10.4,11-13.9,17.6
			c-3.6,6.6-5.9,13.8-7.2,21.2c-0.6,3.7-1,7.4-1.1,11.1c-0.1,3.7,0,7.5,0.6,11.1v0l-0.4-0.7c3.6,3.2,7.5,6.1,11.5,8.7
			c4,2.7,8.3,5,12.6,7c4.4,2,8.9,3.7,13.6,4.8c2.3,0.6,4.7,0.9,7,1.2c2.4,0.3,4.7,0.3,7.1,0.2l0,0c0.9,0,1.6,0.7,1.6,1.5
			C482,444.2,481.3,444.9,480.4,444.9C480.4,444.9,480.4,444.9,480.4,444.9z"/>
	</g>
	<g>
		<path class="st2" d="M308.9,383.1c-0.7,2.1-1.1,4.4-1.5,6.6c-0.3,2.3-0.5,4.5-0.5,6.8c0,4.6,0.8,9.1,2.5,13.4c0.9,2.1,2,4.1,3.3,6
			c1.3,1.9,2.9,3.6,4.6,5.1c3.5,3,7.6,5.4,12,7.1c0.1,0,0.1,0.1,0.1,0.2c0,0.1-0.1,0.1-0.1,0.1c-4.5-1.5-8.8-3.6-12.5-6.5
			c-1.8-1.5-3.6-3.2-5.1-5.1c-1.5-1.9-2.8-3.9-3.8-6.1c-2.1-4.4-3.1-9.2-3.4-14c-0.1-2.4-0.1-4.8,0.1-7.2c0.2-2.4,0.6-4.8,1.2-7.2
			c0.2-0.8,1.1-1.4,1.9-1.1c0.8,0.2,1.4,1.1,1.1,1.9C309,383,308.9,383,308.9,383.1L308.9,383.1z"/>
	</g>
	<g>
		<path class="st2" d="M331.1,347.3c-3.2,1.4-6.4,3.3-9.3,5.4c-2.9,2.1-5.7,4.4-8.1,7c-1.3,1.2-2.4,2.7-3.6,4
			c-1,1.4-2.2,2.8-3.1,4.4c-2,2.9-3.4,6.2-4.8,9.5l0,0.1c-0.4,0.9-1.4,1.4-2.4,1s-1.4-1.4-1-2.4c0,0,0-0.1,0-0.1
			c1.6-3.4,3.3-6.8,5.6-9.9c1-1.6,2.3-3,3.5-4.4c1.3-1.4,2.5-2.8,3.9-4c2.7-2.6,5.7-4.9,8.8-6.9c3.1-2,6.4-3.8,9.9-5.1
			c0.4-0.2,0.9,0,1,0.5C331.7,346.7,331.5,347.1,331.1,347.3L331.1,347.3z"/>
	</g>
	<g>
		<g>
			<path class="st2" d="M372.1,393.3c0.8-4,1.2-8.1,0.6-12c-0.3-1.9-0.8-3.8-1.5-5.6c-0.7-1.8-1.7-3.5-2.8-5
				c-2.3-3.1-5.3-5.6-8.8-7.4c-3.5-1.8-7.3-2.9-11.2-3.3c-3.9-0.4-7.9-0.1-11.6,1c-3.7,1.1-7.3,3-10.6,5.3c-3.3,2.3-6.4,5-9.3,8
				c-2.9,3-5.6,6.2-8,9.5l0.3-0.8l0,0c-0.1,1.3-0.1,2.8,0,4.2c0.1,1.4,0.3,2.8,0.5,4.2c0.5,2.8,1.3,5.5,2.4,8.1
				c2.2,5.2,5.8,9.7,10.4,12.8c4.6,3.2,10.1,5,15.8,5.9c5.7,0.9,11.5,0.8,17.3,0.3l-0.9,0.3c1.7-1.3,3.5-3,5.1-4.7
				c1.6-1.7,3.1-3.6,4.5-5.5c2.7-3.9,5.1-8.1,6.8-12.5l0.6-1.7l0.3-0.8L372.1,393.3l0.1-0.3l0.1-0.2c0,0.1,0.1-0.2,0.4-0.5
				c-0.4-0.9,5.5,1.5,3.1,1.1c0,0.3,0,0.4,0,0.3l0,0.1l0,0.1c-0.1,0.3-0.1,0.4-0.1,0.6c-0.3,1.2-0.7,2.6-1.2,3.8
				c-0.9,2.4-2.2,4.7-3.5,6.8c-2.6,4.3-5.7,8.3-8.9,12.1l-2.8-2.4c3.1-3.7,6.1-7.6,8.5-11.6c1.2-2,2.4-4.1,3.2-6.3
				c0.4-1.1,0.7-2.1,1-3.3l0.1-0.3l0,0l0,0.1c0,0,0,0.1,0,0.3c-2.4-0.4,3.5,2,3.1,1.1c0.3-0.3,0.4-0.5,0.3-0.5l0-0.1c0,0,0,0,0,0
				l-0.1,0.2l-0.3,0.9l-0.7,1.8c-1.8,4.7-4.3,9.1-7.2,13.3c-1.5,2-3.1,4-4.8,5.9c-0.9,0.9-1.8,1.8-2.7,2.7c-0.9,0.9-1.9,1.7-3,2.5
				l-0.4,0.3l-0.5,0c-6,0.6-12.1,0.6-18.2-0.3c-6-0.9-12.1-2.9-17.3-6.5c-5.2-3.5-9.3-8.7-11.7-14.4c-1.2-2.9-2.1-5.9-2.6-8.9
				c-0.3-1.5-0.5-3.1-0.6-4.6c-0.1-1.6-0.1-3,0-4.7l0,0l0-0.4l0.2-0.4c2.2-3.9,4.7-7.5,7.6-10.8c2.9-3.4,6.1-6.5,9.7-9.1
				c3.6-2.7,7.7-4.9,12.2-6.3c4.5-1.4,9.2-1.6,13.8-1.2c4.6,0.5,9.1,1.9,13.2,4.1c4.1,2.2,7.7,5.4,10.3,9.3
				c2.7,3.9,4.2,8.5,4.6,13.1c0.4,4.6-0.2,9.2-1.5,13.4L372.1,393.3z"/>
		</g>
	</g>
</g>
<g id="HAT">
</g>
</svg>
